<svg id="Layer_1" data-name="Layer 1" xmlns="http://www.w3.org/2000/svg" xmlns:xlink="http://www.w3.org/1999/xlink" viewBox="0 0 460.82 181.17"><defs><style>.cls-1{fill:url(#radial-gradient);}.cls-2{fill:#fcd12a;}</style><radialGradient id="radial-gradient" cx="-693" cy="99.08" r="27.33" gradientTransform="translate(834.36 -58.75)" gradientUnits="userSpaceOnUse"><stop offset="0" stop-color="#fff"/><stop offset="0.06" stop-color="#fffbee" stop-opacity="0.92"/><stop offset="0.33" stop-color="#feeca9" stop-opacity="0.6"/><stop offset="0.57" stop-color="#fde173" stop-opacity="0.34"/><stop offset="0.76" stop-color="#fcd84b" stop-opacity="0.16"/><stop offset="0.91" stop-color="#fcd333" stop-opacity="0.04"/><stop offset="1" stop-color="#fcd12a" stop-opacity="0"/></radialGradient></defs><circle class="cls-1" cx="141.37" cy="40.33" r="27.33"/><path class="cls-2" d="M461.68,88.93a11.41,11.41,0,0,0-2.78,2.63c-.54.82-1.49,3.43,0,3.82a3.84,3.84,0,0,0,3.08-.86,17.21,17.21,0,0,0,2.56-2.82c3.09-3.73,6.53-4.62,11.32-5.26,1.61-.21,3.58,0,4.33,1.4a3.16,3.16,0,0,1-.59,3.3,14.25,14.25,0,0,1-2.72,2.28c-5.66,4.31-7,10.82-4.6,17.53.55,1.51,2.2,5.78,4.33,5.5,1-.13,1.59-1.37,1.77-2.24a5.4,5.4,0,0,0-.6-3.17c-.88-2-2.68-3.92-3-6.13-.69-4.81,3-9.45,8-9,2.52.2,4.9,1.23,7.37,1.81a13.49,13.49,0,0,0,8.72-.53,9.62,9.62,0,0,0,3.24-2.45c.77-.91,2.78-3.43,1.2-4.5a1.42,1.42,0,0,0-1.24-.11c-1.29.42-1.86,1.56-2.68,2.51-2.1,2.46-6.13,3.23-9.19,2.54-3.78-.86-6.62-7.85-3.46-10.71a5,5,0,0,1,2.48-1,33.24,33.24,0,0,0,7-1.94c1.74-.75,4-1.33,5.1-3,1.48-2.19-1-2.23-2.5-1.59s-2.64,1.56-4,2.2A20.82,20.82,0,0,1,490,80.31c-3.89.72-7.52.2-7.28-4.53.32-6.07-6.56-4.63-8.44-.42-1.22,2.72,1,5.81,2.67,6.63A38.07,38.07,0,0,0,461.68,88.93Z" transform="translate(-433.7 -58.75)"/><path class="cls-2" d="M517.84,63.67a4,4,0,0,1,1.14-4,4.72,4.72,0,0,1,2.33-.86,4.83,4.83,0,0,1,2.39.14,4.33,4.33,0,0,1,2.51,3.68,13.31,13.31,0,0,1-.61,4.63c-.11.46-.19,1,.17,1.34a1.23,1.23,0,0,0,.58.23c4.22.76,9.85-.7,13.48-3,.74-.47,1.6-1.27,2.56-1.08,1.91.39,1.45,2.72.51,3.79a9.29,9.29,0,0,1-4.25,2.29c-3.12,1-6.71.57-9.64,2.2-1.29.73-3.35,3.65-2.29,5.2s4.14.32,5.76,1.08a4.07,4.07,0,0,1,2.16,3.33,7.17,7.17,0,0,1-1,4,17,17,0,0,1-7.19,7c-1.72,1-4.24-.14-2.29-2.07,1.68-1.67,3.95-2.73,5.43-4.62,1-1.25,2.11-4-.29-4.46-2.93-.51-6,1.94-7.93,3.88-2.41,2.44-3.07,4.19-7.73,6.87-2.22,1.28-8.29,1.72-7.24-2.17.51-1.91,3.7-.78,5.5-1.12a6.17,6.17,0,0,0,2.92-1.68,15.72,15.72,0,0,0,4.51-7.54c.59-2.41.87-7.25-2.22-8.15a11,11,0,0,0-5.21-.43,16.22,16.22,0,0,0-4.7,2.27c-.83.49-2.85,1.73-3.71.71-1.21-1.45,3-4.31,4.14-4.77A16.78,16.78,0,0,1,516,68.94c.57.07,5.41.88,4.65-.58-.36-.68-1.16-1.26-1.58-2A9,9,0,0,1,517.84,63.67Z" transform="translate(-433.7 -58.75)"/><path class="cls-2" d="M545.07,78.2a4.12,4.12,0,0,1,4.29-4.13,4.33,4.33,0,0,1,3.78,4.7,4.57,4.57,0,0,1-4.76,3.82,4.11,4.11,0,0,0-1.71,0,2.61,2.61,0,0,0-1.09.92c-2.39,3-1.2,6.41-1.65,10.27-.15,1.26-.37,2.71-1.74,3.19s-1.28-4.61-1.32-5.52a44.36,44.36,0,0,1,.2-7c.49-4.57,1.09-9.15,3-13.35,1-2.12,2.38-2.19,2.47,0C546.61,73.4,544,75.72,545.07,78.2Z" transform="translate(-433.7 -58.75)"/><path class="cls-2" d="M466,165.28c.78,5.53,2.48,12.44,5.53,17.12-.25-1.62-.34-3.62,1-4.54a3,3,0,0,1,3.72.76,6.72,6.72,0,0,1,1.28,2.29c.64,1.78.92,3.9-.13,5.47-.85,1.28-1.87,1.67-1.47,3.25a10.13,10.13,0,0,0,2,3.11c1.43,1.84,3.27,3.52,4.47,5.52s2.84,5,2.77,7.27c0,1.39-.52,1.82-1.81.89-3.55-2.55-4.43-7.21-7.41-10.26-.15-.15-2.21-2.12-2.25-1.9-1.83,10.07,2.3,20.13,4.83,30.05.2.77-.08,2.61-1.16,2.73-1.31.14-2.18-2.65-2.51-3.53a61.63,61.63,0,0,1-3.57-16.58c-.36-4.79-2.17-6.86-7.14-6.72a4.94,4.94,0,0,0-4.1,2c-1.07,1.71-.56,4-1.27,5.88-.23.63-.72,1.28-1.4,1.27-1.05,0-1.34-1.45-1.27-2.5a48.89,48.89,0,0,1,.73-5.51c.39-2.05,1.12-4.33,3-5.23,1.31-.62,2.85-.41,4.31-.34,6.87.3,5.25-8.61,3.23-12.44a31.21,31.21,0,0,1-3.52-9.92c-.41-2.51-1.43-6.24-1.73-8.76-.14-1.19-.32-4.48,1.68-4.22C465.61,160.71,465.84,164,466,165.28Z" transform="translate(-433.7 -58.75)"/><path class="cls-2" d="M495.31,209.13a4.8,4.8,0,0,1,2.9-5.15,6.47,6.47,0,0,1,3.15-.49c2.28.31,3.94,2.5,4.39,4.75a20.42,20.42,0,0,1-.42,7.54c.09-.41,4.47.75,4.89.89a15.88,15.88,0,0,1,4.52,2.46,14.59,14.59,0,0,1,3.39,3.79,14.22,14.22,0,0,1,1.41,3.19,1,1,0,0,1,0,.93c-1,1.27-3.71-2.29-4.44-2.87a21.29,21.29,0,0,0-4.31-3c-1.36-.62-4.29-1.21-4.4,1s1.27,4.33,2.49,6.27a54.48,54.48,0,0,1,5.26,10.9,48.17,48.17,0,0,1-10-1.72,5.89,5.89,0,0,1-2.15-1,5,5,0,0,1-1.31-1.94c-.95-2.19.11-4.58-.49-6.89a11.64,11.64,0,0,0-3.37-6.17c-1.19-1-4.07-1.57-5.38-2.41a11.84,11.84,0,0,1-4.86-5.64,9.86,9.86,0,0,1-.71-4c.23-1.6,1.07-2.7,1.46-1.68.27.69.34,1.46.64,2.14a12.26,12.26,0,0,0,3.74,4.62,9.89,9.89,0,0,0,4.81,1.82c.74,0,1.44-.31,1.38-1.15-.08-1-1.64-3.05-2-4A7.28,7.28,0,0,1,495.31,209.13Z" transform="translate(-433.7 -58.75)"/><path class="cls-2" d="M532.21,211.39c.92.37,2,.48,2.7,1.19,1.19,1.23.43,3.31-.65,4.63a13.37,13.37,0,0,1-8.85,4.76c-1.35.14-3.67.1-4.15,1.73-.57,1.92,1.79,2.81,3.27,2.87a12.69,12.69,0,0,0,7.13-2,11.66,11.66,0,0,0,2.69-2.16c.51-.59,1.06-1.89,1.93-2a.77.77,0,0,1,.69.32c1,1.29-.43,3.39-1.52,4.29-2.27,1.87-4.91,3.29-4.73,6.77.12,2.16,2.79,4.5,4.57,5.26,1.17.5,5.1,2.18,6,.65.74-1.33-1.24-2.26-2.15-2.69-1.94-.92-4.46-1.35-4.09-4.1.31-2.33,3.94-5.63,6.58-5.53s5.28,3.26,7.12,4.79a10.1,10.1,0,0,0,6.67,2.57c2.65-.19,4.41-2.3,5.78-4.39a6.94,6.94,0,0,0,1.36-4.15c-.07-1-.77-2.26-1.92-1.51-1.7,1.09-2.62,3.42-3.56,5.12a3.86,3.86,0,0,1-1.19,1.51,2.58,2.58,0,0,1-2.22.13,12,12,0,0,1-4.07-3.09c-2-2-3.95-3.87-4.65-6.74a23,23,0,0,1-.29-7.63c.14-1.53.42-3,1.72-4,2.63-2,7.46-1,10.43-.57,1.48.22,3.56-.47,2.35-2.36a4.21,4.21,0,0,0-2.45-1.47,19.66,19.66,0,0,0-7.75-1.16,8,8,0,0,0-6.44,4,12.47,12.47,0,0,1-1.49,3c-.75.84-2.34,1.06-2.87.07s.28-2,.47-3a3.6,3.6,0,0,0-1.91-3.55c-1.61-1-4.21-1.75-5.93-.65C527.66,204.31,529.12,210.17,532.21,211.39Z" transform="translate(-433.7 -58.75)"/><path class="cls-2" d="M551,163a4.61,4.61,0,0,1,5.73-.52,5.64,5.64,0,0,1,2.32,5.81c-.39,2.18-2.06,3.63-3.75,5.06,4.63,4.81,9.5,4.4,13.64-.11a2.5,2.5,0,0,1,1.49-1c.85-.06,1.48.91,1.39,1.75a4.08,4.08,0,0,1-1.24,2.18c-3.43,3.75-5.7,5.3-10.65,4.12a9.69,9.69,0,0,0-3.65-.63c-2.11.32-2.55,3.76-1.64,5.24s3.06,2.17,4.45,3.42a10,10,0,0,1,2.74,6.2c.24,2-.4,6.78-3.19,7-1,.06-1.55-1-1.45-1.91.15-1.34,1-2.45,1.21-3.77.52-3.83-3.6-6.59-6.89-7.14a2.55,2.55,0,0,0-2.51.71c-4.25,3.73-7.94,9.73-14,10.74a2.36,2.36,0,0,1-1.12,0,1.06,1.06,0,0,1-.78-.75c-.22-1,1.4-2.16,2.1-2.7a31.94,31.94,0,0,0,7.85-7.88,45.28,45.28,0,0,0,3.67-6.59,37.36,37.36,0,0,0,2.71-10.32C549.88,168.9,548.85,165.06,551,163Z" transform="translate(-433.7 -58.75)"/><path class="cls-2" d="M564.74,141.75c0-.05.15-.05.22-.06h.4c.34,0,.67.06,1,.1a14.53,14.53,0,0,1,2.74.71,20.64,20.64,0,0,1,8.63,5.69c.93,1,2.44,3.16,1.35,4.54a2.13,2.13,0,0,1-2.76.12c-1.71-1.19-2.18-3.4-3.58-4.88-1.59-1.68-4-2-6.39-1.21-1.86.62-2.06,2.44-1.55,3.87a12.26,12.26,0,0,0,1.53,2.64,17.29,17.29,0,0,1,3.17,8.61c.16,3.39-1.24,7-4.19,8.76a2.15,2.15,0,0,1-2.16.11c-1.42-.83-.73-2.68-.22-3.84.76-1.7,2.32-2.69,2.49-4.59a6.58,6.58,0,0,0-2.39-5.11,6,6,0,0,0-4.49-.58,35.64,35.64,0,0,1-4.55.93,8,8,0,0,1-8.19-7.41,2.06,2.06,0,0,1,.33-1.28c.73-1,2-.55,2.63.23,1,1.2,1.27,2.72,2.56,3.68a5.51,5.51,0,0,0,4.17,1.05,3.38,3.38,0,0,0,1.7-.76,3.43,3.43,0,0,0,1-1.95c.66-3.28-1.61-6.66-4.66-8s-6.64-1-9.76.19c-.92.35-2,.75-2.8.15a1.94,1.94,0,0,1-.25-2.65,4.47,4.47,0,0,1,2.7-1.58,15.09,15.09,0,0,1,5.19-.29c1.57.16,7.86,2.47,9.4,2.35,0,0-2.82-2.28-1.29-5.4C560,129.14,569.57,136.94,564.74,141.75Z" transform="translate(-433.7 -58.75)"/><path class="cls-2" d="M527.22,143.89c-2.33,1.79-4.43,3.93-7,5.33a5,5,0,0,0,.26-6.58,5.85,5.85,0,0,0-6.59-1.51,7.1,7.1,0,0,0-4.12,5.56,6,6,0,0,0,.95,4.33,4.1,4.1,0,0,0,3.95,1.7c-3,5.82-4.37,13.1-1.21,18.85a4.24,4.24,0,0,0,1.44,1.69,1.85,1.85,0,0,0,2.1-.06,2.17,2.17,0,0,0,.61-1.28c.32-2-.7-3.84-1.28-5.73a13.75,13.75,0,0,1-.52-5.77,4.37,4.37,0,0,1,.8-2.25,1.89,1.89,0,0,1,2.15-.64,2.67,2.67,0,0,1,1.19,1.83c.81,2.95.79,6.06,1.34,9.07s1.85,6.12,4.47,7.7c1.22.72,3.06.93,3.84-.26a2.56,2.56,0,0,0-.29-2.77,20.59,20.59,0,0,0-2-2.13,11.94,11.94,0,0,1-2.57-5c-.54-1.9-.78-4.13.41-5.7s3.56-2,5.53-1.49a29.45,29.45,0,0,1,5.52,2.44,8.22,8.22,0,0,0,5.85.88c1.28-.4,2.48-1.78,1.88-3-.51-1-1.87-1.12-3-1.28-4.62-.68-8.49-4.44-13.16-4.49a7.31,7.31,0,0,1-2-.14,1.6,1.6,0,0,1-1.23-1.46,2,2,0,0,1,.47-1,11.09,11.09,0,0,1,6.78-4.31,28.54,28.54,0,0,0,3.44-.64,3.53,3.53,0,0,0,2.45-2.29C539,137.59,528.7,142.75,527.22,143.89Z" transform="translate(-433.7 -58.75)"/><path class="cls-2" d="M508.37,163.83a5.49,5.49,0,0,1-.93-6.73,3.92,3.92,0,0,1-1.37-3.82,10.08,10.08,0,0,1,1.34-4.09,3,3,0,0,0-.41,1.31,6.2,6.2,0,0,0,.11,2.54,7.6,7.6,0,0,0,.72,1.68c.16.27.33.52.51.77a2.38,2.38,0,0,1,.48.69,1.19,1.19,0,0,1-.1.61c-.22.85-.62,1.54-.86,2.38a7.16,7.16,0,0,0-.19,2.65A3.21,3.21,0,0,0,508.37,163.83Z" transform="translate(-433.7 -58.75)"/><path class="cls-2" d="M467.68,82a7.88,7.88,0,0,0-4.17,1,9.69,9.69,0,0,0-3.46,3,8.74,8.74,0,0,1,6.4-5.14c.2-1.9,3.15-3.92,4.73-5a21.8,21.8,0,0,0-2.59,3A6.51,6.51,0,0,0,467.68,82Z" transform="translate(-433.7 -58.75)"/><path class="cls-2" d="M484.65,68.08a.27.27,0,0,0,.06.47l6.05,2.35a2.47,2.47,0,0,0,.74.2,2.53,2.53,0,0,0,.81-.12l6.7-1.77c.32-.09.71-.28.66-.6s-.25-.35-.45-.45c-1.35-.66-2.73-1.28-4.13-1.86-1.13-.46-2.71-1.41-4-1.19a18.49,18.49,0,0,0-3.2,1.26A15.19,15.19,0,0,0,484.65,68.08Z" transform="translate(-433.7 -58.75)"/><path class="cls-2" d="M492.06,72.22a7.09,7.09,0,0,0,1.43-.28l3.25-.94a.4.4,0,0,1,.51.39,11.36,11.36,0,0,1-.29,2.24.43.43,0,0,1-.3.3L492,75.09a3.71,3.71,0,0,1-1.65.16,3.61,3.61,0,0,1-1.08-.48l-2.54-1.46A1.1,1.1,0,0,1,486,71.9c.07-.43-.19-1.53.29-1.61s1.59.79,2,.95C490.5,72.2,490.81,72.34,492.06,72.22Z" transform="translate(-433.7 -58.75)"/><path class="cls-2" d="M498,73.67c-.08.65-.21,1.29-.27,2a.19.19,0,0,0,0,.13s.06,0,.1,0c.35,0,.64-.23,1-.25a.26.26,0,0,0,.17,0c.16-.11.12-.39.07-.6a12,12,0,0,1-.27-4.23c0-.12,0-.27-.07-.32s-.07-.06-.15-.06c-.73,0-.57.62-.53,1.43A11.8,11.8,0,0,1,498,73.67Z" transform="translate(-433.7 -58.75)"/><path class="cls-2" d="M464.5,110.05a3.74,3.74,0,0,0,1.1-.15c.06.08,0,.18-.13.22a3,3,0,0,1-1.44.3,2.14,2.14,0,0,1-1.34-.59c-.1-.1-.26-.44,0-.44s.39.22.51.28A3.22,3.22,0,0,0,464.5,110.05Z" transform="translate(-433.7 -58.75)"/><path class="cls-2" d="M464.77,110.72a1.09,1.09,0,0,1,.53-.1c.05,0,.12,0,.11.1a.18.18,0,0,1-.07.08,2.59,2.59,0,0,1-2.49,0c-.14-.07-.41-.38-.1-.43.14,0,.49.23.64.28A2.24,2.24,0,0,0,464.77,110.72Z" transform="translate(-433.7 -58.75)"/><path class="cls-2" d="M464.45,111.55c.09,0,.22-.08.29,0s0,.19,0,.28a1.37,1.37,0,0,1-.83.58.81.81,0,0,1-.22,0,.57.57,0,0,1-.29-.22,2.29,2.29,0,0,1-.3-.5c-.17-.41.38-.12.55-.09A1.67,1.67,0,0,0,464.45,111.55Z" transform="translate(-433.7 -58.75)"/><path class="cls-2" d="M469,99.71a3.6,3.6,0,0,0-5.67-1.4,4.61,4.61,0,0,0-1.48,2.92,9.85,9.85,0,0,0,.23,3.33c.2,1,0,2.68.55,3.53s2.1,1.43,2.88.74a3.14,3.14,0,0,0,.65-1.39c.54-1.39,2-2.23,2.69-3.55a5.67,5.67,0,0,0,.15-4.18Zm-3.25,5.11a2.23,2.23,0,0,0,.47-.31,2.45,2.45,0,0,0-.35.79c-.12.29-.24.59-.35.89a17.66,17.66,0,0,0-.53,1.89c-.07.29-.2.66-.5.66a8.73,8.73,0,0,1,.28-1.79,6.41,6.41,0,0,1,.34-.86c.12-.24.37-.48.33-.77s-.28-.48,0-.73a.64.64,0,0,1-.33.07c-.17,0-.2-.09-.25-.25s-.17-.34-.27-.18a11,11,0,0,1-.72,3.85c-.07.18-.17.34-.37.3a13,13,0,0,0,.53-4.56c-.05-.44-.31-1,.05-1.44-.32.34.31,1,.47,1.25a1,1,0,0,0,.2-.29,2.46,2.46,0,0,0,.16-.48,2.09,2.09,0,0,0,.08.55c0,.24.09.48.14.72.49-.16.39-.92.85-1.11a.17.17,0,0,1,.25.15C466.27,103.77,465.53,104.2,465.77,104.82Z" transform="translate(-433.7 -58.75)"/><path class="cls-2" d="M468.72,92.88a1.44,1.44,0,0,0-.25.88.92.92,0,0,0,.09.37,1.21,1.21,0,0,0,.78.55,1.8,1.8,0,0,0,1.69-.17,1.24,1.24,0,0,0,.1-1.65A1.58,1.58,0,0,0,468.72,92.88Z" transform="translate(-433.7 -58.75)"/><path class="cls-2" d="M473.12,90.21a.79.79,0,0,0-.13.45.59.59,0,0,0,.05.19.62.62,0,0,0,.4.28.93.93,0,0,0,.86-.08.63.63,0,0,0,.05-.85A.81.81,0,0,0,473.12,90.21Z" transform="translate(-433.7 -58.75)"/><path class="cls-2" d="M481,100.3a1,1,0,0,0-1.13.65c-.26.86.86,1.53,1,2.41s-.51,1.4-1.05,1.92a4,4,0,0,0-.69.84c-.11.21-.4.79-.25,1s1.1,0,1.35-.08c.42-.12,1.7-.8,2.05-.44a5.06,5.06,0,0,1,.63,1.25l.68,1.43c.19.37.63.81.94.53a.64.64,0,0,0,.15-.38,14.47,14.47,0,0,0,.24-2c0-.34,0-.69,0-1,0-.56.83-.32,1.23-.33a23.91,23.91,0,0,0,2.54-.19.69.69,0,0,0,.52-.25.59.59,0,0,0-.09-.58,3.31,3.31,0,0,0-1.65-1.27c-.51-.19-1.46.1-1.85-.36-.24-.29.33-.51.49-.63a4.91,4.91,0,0,0,.75-.69c.24-.29.88-1.27.46-1.63s-1.54.31-1.89.43-.61.26-.92.39-1,.56-1.27.41C482.46,101.3,481.91,100.43,481,100.3Z" transform="translate(-433.7 -58.75)"/><path class="cls-2" d="M469.8,116.66l-.21.13c.09.33.17.66.25,1,.38,1.55.71,3.1,1,4.66a4.67,4.67,0,0,1,2.23-.4h.09c-.27-1.1-.55-2.21-.83-3.32-.22-.9-.45-1.81-.72-2.71A11.55,11.55,0,0,0,469.8,116.66Z" transform="translate(-433.7 -58.75)"/><path class="cls-2" d="M471.31,115.6l.17,0c-.1-.33-.22-.65-.34-1a.82.82,0,0,0-.34-.48.55.55,0,0,0-.38,0,4.42,4.42,0,0,0-1,.29c-.39.24-.36.17-.21.77.09.32.17.65.25,1A5.59,5.59,0,0,1,471.31,115.6Z" transform="translate(-433.7 -58.75)"/><path class="cls-2" d="M471.42,122.85,471,123l0,.12a3.07,3.07,0,0,0,.24.85,2.87,2.87,0,0,0,.39.57c.33.4,1,1.32,1.38,1s.28-1.18.34-1.56a3.08,3.08,0,0,0,.08-.75,3.45,3.45,0,0,0-.13-.7v0A10.77,10.77,0,0,0,471.42,122.85Z" transform="translate(-433.7 -58.75)"/><path class="cls-2" d="M538.82,147.93a.59.59,0,0,0-.71.23c-.25.44.29,1,.26,1.46s-.45.72-.82.94a2,2,0,0,0-.48.39c-.09.1-.33.39-.27.53s.62.13.76.12,1.05-.23,1.2,0a2.89,2.89,0,0,1,.2.78l.21.87c.05.24.25.53.45.41a.36.36,0,0,0,.13-.19,8.53,8.53,0,0,0,.38-1.07c0-.19.1-.38.14-.57s.5-.08.73,0a11.34,11.34,0,0,0,1.44.2.36.36,0,0,0,.32-.07.38.38,0,0,0,0-.33,1.85,1.85,0,0,0-.77-.91c-.26-.17-.83-.13-1-.43s.24-.24.35-.29a3.6,3.6,0,0,0,.5-.29c.17-.13.64-.61.45-.86s-.9,0-1.1,0a5,5,0,0,0-.56.11c-.15,0-.64.18-.76.07C539.53,148.67,539.33,148.12,538.82,147.93Z" transform="translate(-433.7 -58.75)"/><path class="cls-2" d="M533,149a.28.28,0,0,0-.33-.12c-.23.1-.17.45-.33.64a.7.7,0,0,1-.59.12,1,1,0,0,0-.3,0c-.06,0-.24.05-.26.13s.2.23.26.27.47.21.46.35a1.23,1.23,0,0,1-.16.35l-.17.4c0,.11-.06.28.05.29a.45.45,0,0,0,.11,0,4.53,4.53,0,0,0,.46-.3l.22-.18c.12-.1.21.12.28.2s.32.34.5.5.09.07.14.06a.15.15,0,0,0,.1-.12.86.86,0,0,0,0-.57c0-.14-.28-.29-.25-.45s.16,0,.22,0l.27,0c.11,0,.43,0,.43-.19s-.34-.27-.43-.32a1.79,1.79,0,0,0-.24-.12c-.07,0-.3-.12-.31-.2C533,149.51,533.13,149.24,533,149Z" transform="translate(-433.7 -58.75)"/><path class="cls-2" d="M581.25,177l.2-.18c-.15-.35-.31-.69-.46-1-.7-1.63-1.35-3.28-2-4.93a5.14,5.14,0,0,1-2.36.86h-.11l1.53,3.49c.42,1,.84,1.9,1.31,2.83A12.69,12.69,0,0,0,581.25,177Z" transform="translate(-433.7 -58.75)"/><path class="cls-2" d="M579.8,178.39l-.19.07c.18.33.36.67.55,1s.26.42.47.47a.67.67,0,0,0,.41-.09,5,5,0,0,0,1.06-.52c.39-.34.36-.25.09-.88-.16-.34-.31-.69-.46-1A5.87,5.87,0,0,1,579.8,178.39Z" transform="translate(-433.7 -58.75)"/><path class="cls-2" d="M578.31,170.47c.07,0,.26-.16.46-.28a.69.69,0,0,0,0-.13,3.63,3.63,0,0,0-.42-.89,3.58,3.58,0,0,0-.55-.55c-.42-.37-1.36-1.25-1.69-.84s-.08,1.34-.09,1.77a3.91,3.91,0,0,0,.06.83,5.17,5.17,0,0,0,.27.75l0,.05A11.38,11.38,0,0,0,578.31,170.47Z" transform="translate(-433.7 -58.75)"/><path class="cls-2" d="M509.49,82.77a3.39,3.39,0,0,1-2.35-1.27.38.38,0,0,1,.09-.52.36.36,0,0,1,.51.09,2.58,2.58,0,0,0,1.84,1c.2,0,.14-.89.12-1.3-.05-.77-.1-1.5.39-1.77s1,.08,1.43.38a3.38,3.38,0,0,0,2.24.55.55.55,0,0,0,.37-.32,3,3,0,0,0-.69-2.07.37.37,0,0,1,.11-.51.36.36,0,0,1,.51.12,3.59,3.59,0,0,1,.76,2.7,1.25,1.25,0,0,1-.82.78,4,4,0,0,1-2.91-.65c-.5-.36-.66-.34-.66-.33a4.63,4.63,0,0,0,0,1.07c.06.88.13,2-.77,2.08Z" transform="translate(-433.7 -58.75)"/><path class="cls-2" d="M499.86,84.65c.35-.1.81-.14,1,.16s-.12.73-.43,1a24.32,24.32,0,0,1-8.08,4.07c-1.35.4-3.32.16-1.32-1,1.31-.75,2.69-1.4,4-2.13A22.3,22.3,0,0,1,499.86,84.65Z" transform="translate(-433.7 -58.75)"/><path class="cls-2" d="M503.08,82.56a2.45,2.45,0,0,1,1.45.12,1.23,1.23,0,0,1,.66,1.31.6.6,0,0,0-.64-.23c-.39.1-.64.55-.95.85-.58.56-1.91.66-2.19-.29S502.36,82.66,503.08,82.56Z" transform="translate(-433.7 -58.75)"/><path class="cls-2" d="M533.19,76a2.08,2.08,0,0,1,1.54,1.91,3.25,3.25,0,0,1,3.9,3.45,3.8,3.8,0,0,0-.09-3.53,2.61,2.61,0,0,0-3.19-1.06A2.4,2.4,0,0,0,533,74.66a3.39,3.39,0,0,0-3,1.64C531.14,76.32,532,75.61,533.19,76Z" transform="translate(-433.7 -58.75)"/><path class="cls-2" d="M546.22,199a2.52,2.52,0,0,0,.57.56c0,.07-.12.06-.18,0a2.11,2.11,0,0,1-.81-.7,1.51,1.51,0,0,1-.26-1c0-.1.13-.34.25-.18s.05.32.07.42A2.43,2.43,0,0,0,546.22,199Z" transform="translate(-433.7 -58.75)"/><path class="cls-2" d="M546,199.44a.92.92,0,0,1,.29.26s0,.09,0,.11a.12.12,0,0,1-.08,0,1.89,1.89,0,0,1-1.14-1.4c0-.11,0-.4.2-.25s.09.39.13.49A1.62,1.62,0,0,0,546,199.44Z" transform="translate(-433.7 -58.75)"/><path class="cls-2" d="M545.34,199.63c.06,0,.14.09.12.17s-.1.1-.17.1a.93.93,0,0,1-.7-.21.53.53,0,0,1-.1-.12.41.41,0,0,1,0-.27,1.32,1.32,0,0,1,.15-.39c.16-.29.24.16.3.27A1.27,1.27,0,0,0,545.34,199.63Z" transform="translate(-433.7 -58.75)"/><path class="cls-2" d="M554.16,197a2.66,2.66,0,0,0,.14-2.38,2.69,2.69,0,0,0-1.86-1.5,3.38,3.38,0,0,0-2.34.46,7.34,7.34,0,0,0-1.81,1.62c-.47.55-1.52,1.21-1.78,1.89s.12,1.85.86,2a2.37,2.37,0,0,0,1.09-.24c1-.32,2.18.15,3.24,0a3.69,3.69,0,0,0,1.78-1A3.86,3.86,0,0,0,554.16,197Zm-4.37.42s.34.13.38.13a1.83,1.83,0,0,0-.6.15c-.23.06-.45.13-.67.21a9.57,9.57,0,0,0-1.32.53c-.2.09-.47.18-.61,0a7.5,7.5,0,0,1,1.15-.64,4.84,4.84,0,0,1,.65-.19c.19,0,.44,0,.59-.15s.15-.38.4-.36c-.06,0-.15-.1-.19-.15s0-.16,0-.25.11-.25,0-.24a8.13,8.13,0,0,1-2.53,1.31c-.14,0-.27,0-.34-.08a9.47,9.47,0,0,0,2.85-1.73c.23-.23.47-.65.85-.62-.34,0-.42.61-.51.83a.76.76,0,0,0,.26,0,2.48,2.48,0,0,0,.35-.13,1.33,1.33,0,0,0-.28.3c-.12.13-.24.26-.35.4.31.21.69-.19,1,0a.12.12,0,0,1,0,.2C550.61,197.2,550,197,549.79,197.38Z" transform="translate(-433.7 -58.75)"/><path class="cls-2" d="M529.76,238.29a27.3,27.3,0,0,1-1.23-6.32,1.39,1.39,0,0,0-.35-1,1.37,1.37,0,0,0-.5-.21,4.9,4.9,0,0,0-4.75,1.58c-.16.19-.35.41-.59.37a.83.83,0,0,1-.32-.17,6.1,6.1,0,0,0-2.92-1.42c-1.08,0-2.4.13-2.8,1.12a5.77,5.77,0,0,0,.13,2.33l.63,3c.2,1,.09,1.59,1.13,1.39,1.67-.32,2.69-1.09,4.64.7a1,1,0,0,0,.46.25,1,1,0,0,0,1-.39,3,3,0,0,1,3.5-1.45c.54.07,1.15.49,1.75.52A.21.21,0,0,0,529.76,238.29Zm-8.66-.82c-.12.09-.28,0-.4-.08a2,2,0,0,0-1.75.08.69.69,0,0,1-.59.06.65.65,0,0,1-.23-.47c-.09-.56-.35-1.34.18-1.71a2.36,2.36,0,0,1,2.19,0,.94.94,0,0,1,.32.23,1.29,1.29,0,0,1,.24.67c0,.33.08.65.11,1A.33.33,0,0,1,521.1,237.47Zm6-3.31-.29.05a4.7,4.7,0,0,0-.73.14.54.54,0,0,1-.69-.37c-.1-.33-.21-.68-.22-.75-.1-.37-.23-.82.07-1.13a3.18,3.18,0,0,1,2-.44.39.39,0,0,1,.18.06.35.35,0,0,1,.11.26c.06.51,0,1.05,0,1.54A.55.55,0,0,1,527.1,234.16Z" transform="translate(-433.7 -58.75)"/><path class="cls-2" d="M459.86,193.29a25.32,25.32,0,0,1,5-3.06,1.31,1.31,0,0,0,.78-.63,1.2,1.2,0,0,0,0-.5,4.46,4.46,0,0,0-2.86-3.56c-.21-.08-.46-.17-.5-.39a.76.76,0,0,1,.05-.33,5.66,5.66,0,0,0,.28-2.95c-.32-.93-.87-2-1.85-2.05a5.53,5.53,0,0,0-1.95.85l-2.4,1.5c-.76.48-1.33.59-.83,1.41.81,1.33,1.79,2,.87,4.2a1,1,0,0,0-.07.47.89.89,0,0,0,.66.74,2.8,2.8,0,0,1,2.35,2.55c.11.49-.06,1.14.1,1.66A.2.2,0,0,0,459.86,193.29Zm-2-7.69c-.11-.06-.08-.23-.06-.36a1.85,1.85,0,0,0-.62-1.48c-.13-.13-.27-.3-.23-.48a.55.55,0,0,1,.32-.35c.45-.25,1-.72,1.53-.38a2.13,2.13,0,0,1,.73,1.86.86.86,0,0,1-.09.35,1.12,1.12,0,0,1-.5.41l-.81.4A.29.29,0,0,1,457.82,185.6Zm4.74,4.1a1.71,1.71,0,0,1-.13-.23,4.32,4.32,0,0,0-.36-.58.5.5,0,0,1,.1-.71l.57-.43c.29-.2.63-.46,1-.3s.89,1.15,1,1.59a.32.32,0,0,1,0,.17.34.34,0,0,1-.19.18c-.42.21-.91.3-1.31.52A.51.51,0,0,1,462.56,189.7Z" transform="translate(-433.7 -58.75)"/><path class="cls-2" d="M550.59,129.43a.21.21,0,0,1,0,.37l-4.23,2.81a2.25,2.25,0,0,1-.53.28,2.28,2.28,0,0,1-.64,0l-5.41-.25c-.25,0-.59-.1-.6-.36s.13-.31.27-.41c.92-.74,1.87-1.44,2.84-2.12.79-.54,1.84-1.53,2.84-1.57a14.24,14.24,0,0,1,2.65.44A12.09,12.09,0,0,1,550.59,129.43Z" transform="translate(-433.7 -58.75)"/><path class="cls-2" d="M545.62,133.84a6.2,6.2,0,0,1-1.14,0l-2.64-.19a.31.31,0,0,0-.32.38,8.38,8.38,0,0,0,.59,1.68.34.34,0,0,0,.27.18l3.77.12a2.94,2.94,0,0,0,1.29-.15,2.9,2.9,0,0,0,.75-.55l1.69-1.54a1.14,1.14,0,0,0,.44-.65,1,1,0,0,0-.11-.55c-.13-.33-.11-1.21-.49-1.2s-1.09.87-1.34,1.06C546.81,133.56,546.59,133.72,545.62,133.84Z" transform="translate(-433.7 -58.75)"/><path class="cls-2" d="M541.34,135.93c.17.48.38.95.53,1.45a.14.14,0,0,1,0,.11.08.08,0,0,1-.07,0c-.27,0-.53-.07-.8,0a.32.32,0,0,1-.14,0c-.14-.06-.16-.29-.15-.46a9.27,9.27,0,0,0-.5-3.29c0-.09-.05-.2,0-.26s0-.06.1-.07c.56-.14.54.38.64,1A11.12,11.12,0,0,0,541.34,135.93Z" transform="translate(-433.7 -58.75)"/><path class="cls-2" d="M553.51,133.56a.28.28,0,0,0-.34-.12c-.23.09-.17.45-.33.63a.67.67,0,0,1-.59.12,1,1,0,0,0-.3,0c-.06,0-.23.05-.25.12s.19.23.25.27.47.22.46.36a1.54,1.54,0,0,1-.15.35l-.18.4c-.05.1-.06.27,0,.29a.21.21,0,0,0,.11,0,4.53,4.53,0,0,0,.46-.3l.22-.18c.12-.09.21.12.29.2a4.64,4.64,0,0,0,.49.5s.09.08.14.07.09-.07.11-.12a1,1,0,0,0,0-.58c0-.14-.28-.29-.25-.45s.16,0,.22,0a1.26,1.26,0,0,0,.28,0c.1,0,.42,0,.42-.19s-.34-.27-.42-.32l-.25-.13c-.07,0-.3-.11-.31-.19C553.56,134.05,553.65,133.78,553.51,133.56Z" transform="translate(-433.7 -58.75)"/><path class="cls-2" d="M558.42,96.31a.47.47,0,0,0-.22-.24,2.78,2.78,0,0,0-.77-.34,1.63,1.63,0,0,0,.73-.56.6.6,0,0,0-.14-.82c-.41-.22-.84.3-1.3.35a1.56,1.56,0,0,0,0-.83.53.53,0,0,0-.67-.32c-.14.08-.26.46-.38.47s-.36-.38-.48-.48a.4.4,0,0,0-.42-.1.45.45,0,0,0-.18.34l-.17.8a3.56,3.56,0,0,0-1,.2.39.39,0,0,0-.21.11c-.13.16,0,.41.18.52a4.17,4.17,0,0,1,.57.26c-.22.3-.84.88-.7,1.31.1.28,1.1.42,1.16.06a1.47,1.47,0,0,0,.29,1.11.53.53,0,0,0,.29.2.52.52,0,0,0,.53-.25c.12-.17.19-.38.32-.55.07.35.43.55.76.69.11.05.25.1.34,0a.25.25,0,0,0,.1-.16,1.28,1.28,0,0,0-.11-1,2.26,2.26,0,0,0,1.16-.3C558.29,96.67,558.47,96.5,558.42,96.31Zm-2,.21a1,1,0,0,1-.82.27,1.35,1.35,0,0,1-.47-.22.94.94,0,0,1-.32-1.37.84.84,0,0,1,.25-.31A1.07,1.07,0,0,1,556.43,96.52Z" transform="translate(-433.7 -58.75)"/><path class="cls-2" d="M554.78,99a1,1,0,0,0,1.16-.34,10.56,10.56,0,0,1-.44,3.1,7.47,7.47,0,0,0-.83-1.49s0,0,0,0,0,0-.07,0l-1.51.91.15-.5.3-1a3.89,3.89,0,0,1,.31-1.1C554.17,98.1,554.39,98.87,554.78,99Z" transform="translate(-433.7 -58.75)"/><path class="cls-2" d="M554,145.48a.39.39,0,0,0-.26,0,2.66,2.66,0,0,0-.6.26,1.34,1.34,0,0,0,.07-.71.46.46,0,0,0-.54-.36c-.35.12-.28.64-.5.93a1.24,1.24,0,0,0-.47-.44.41.41,0,0,0-.54.22c0,.12.12.39.06.46s-.4,0-.53,0a.33.33,0,0,0-.27.19.36.36,0,0,0,.09.29l.37.52a3.25,3.25,0,0,0-.41.67.34.34,0,0,0,0,.18c0,.16.24.21.39.16s.29-.15.45-.18c.06.29.06.95.38,1.09s.83-.4.65-.63a1.1,1.1,0,0,0,.79.42.4.4,0,0,0,.27-.05.42.42,0,0,0,.14-.44c0-.16-.11-.31-.14-.47a.89.89,0,0,0,.79-.07c.09,0,.19-.09.2-.19a.18.18,0,0,0,0-.14,1,1,0,0,0-.65-.48,1.78,1.78,0,0,0,.45-.83C554.11,145.74,554.11,145.55,554,145.48Zm-.94,1.24a.73.73,0,0,1-.28.62,1,1,0,0,1-.38.15.86.86,0,0,1-.63-.08.84.84,0,0,1-.32-.46.67.67,0,0,1,0-.31A.83.83,0,0,1,553,146.72Z" transform="translate(-433.7 -58.75)"/><path class="cls-2" d="M553.59,149a.8.8,0,0,0,.43-.85,8.33,8.33,0,0,1,1.54,1.9,6.41,6.41,0,0,0-1.29-.32h0s0,0,0,.05l-.28,1.35-.2-.35-.44-.73a3.4,3.4,0,0,1-.47-.76C552.74,148.87,553.3,149.15,553.59,149Z" transform="translate(-433.7 -58.75)"/><path class="cls-2" d="M459.84,108.67a.51.51,0,0,0-.19-.33,3.43,3.43,0,0,0-.8-.57,1.85,1.85,0,0,0,1-.47.69.69,0,0,0,0-1c-.42-.35-1,.14-1.58.1a1.81,1.81,0,0,0,.2-1c-.06-.32-.39-.62-.7-.52s-.4.46-.55.45-.31-.53-.43-.67-.29-.26-.46-.2-.23.2-.29.34l-.38.87a5.09,5.09,0,0,0-1.17,0,.5.5,0,0,0-.27.08c-.19.15-.09.47.09.63a5.26,5.26,0,0,1,.59.43c-.32.3-1.17.82-1.1,1.34,0,.35,1.16.74,1.31.34a1.69,1.69,0,0,0,.08,1.34.63.63,0,0,0,.27.31.65.65,0,0,0,.68-.17c.18-.17.31-.39.49-.55,0,.42.37.72.71,1a.4.4,0,0,0,.39.11.29.29,0,0,0,.15-.16,1.46,1.46,0,0,0,.11-1.21,2.7,2.7,0,0,0,1.41-.07C459.61,109.06,459.86,108.9,459.84,108.67Zm-2.32-.23a1.1,1.1,0,0,1-1,.12,1.45,1.45,0,0,1-.49-.36,1.29,1.29,0,0,1-.39-.87,1.32,1.32,0,0,1,.34-.77,1.12,1.12,0,0,1,.37-.31A1.26,1.26,0,0,1,457.52,108.44Z" transform="translate(-433.7 -58.75)"/><path class="cls-2" d="M455,110.94a1.19,1.19,0,0,0,1.42-.12,12.47,12.47,0,0,1-1.23,3.45,8.59,8.59,0,0,0-.61-1.9s0-.05,0-.06a.12.12,0,0,0-.08,0l-1.95.69.29-.53c.2-.38.4-.75.59-1.13a5.13,5.13,0,0,1,.61-1.19C454.55,109.73,454.62,110.67,455,110.94Z" transform="translate(-433.7 -58.75)"/><path class="cls-2" d="M559.88,212.6a6.47,6.47,0,0,0-2.5-1.74c-1.89-.64-4,.1-5.69,1.12-1.51.89-3,2.14-3.32,3.86a4,4,0,0,0,.89,3.27,4.34,4.34,0,0,0,3.06,1.49c.32.9-.27,1.5-.77,2.12a2.39,2.39,0,0,0,2-.74,7.27,7.27,0,0,1,.72-.83,1.56,1.56,0,0,1,.56-.12,7.44,7.44,0,0,0,5.57-2.73,4.27,4.27,0,0,0,1-2.47A4.73,4.73,0,0,0,559.88,212.6Zm-7.4,4.09a.66.66,0,0,1-.18.35.59.59,0,0,1-.22.12,1.41,1.41,0,0,1-1.17-.21.52.52,0,0,1-.11-.1.4.4,0,0,1,0-.13,1.85,1.85,0,0,1,0-.47.75.75,0,0,1,.72-.68,1.24,1.24,0,0,1,.74.12.7.7,0,0,1,.28.46A1.24,1.24,0,0,1,552.48,216.69Zm3.23-.45a.73.73,0,0,1-.18.35.59.59,0,0,1-.22.12,1.41,1.41,0,0,1-1.17-.21.35.35,0,0,1-.11-.1s0-.08,0-.12a1.93,1.93,0,0,1,0-.48.75.75,0,0,1,.72-.68,1.21,1.21,0,0,1,.73.12.74.74,0,0,1,.29.46A1.23,1.23,0,0,1,555.71,216.24Zm3.28-.31a.66.66,0,0,1-.18.35.78.78,0,0,1-.22.12,1.45,1.45,0,0,1-1.17-.21.52.52,0,0,1-.11-.1.5.5,0,0,1,0-.13,1.93,1.93,0,0,1,0-.48.75.75,0,0,1,.72-.67,1.24,1.24,0,0,1,.74.12.68.68,0,0,1,.28.45A1.28,1.28,0,0,1,559,215.93Z" transform="translate(-433.7 -58.75)"/><path class="cls-2" d="M536.87,62a4.26,4.26,0,0,0-1.06-1.71,4.67,4.67,0,0,0-3.73-.82,4.15,4.15,0,0,0-3,1.46,2.62,2.62,0,0,0-.33,2.21,2.88,2.88,0,0,0,1.47,1.7c-.05.63-.56.84-1,1.08a1.55,1.55,0,0,0,1.42.09,4.9,4.9,0,0,1,.66-.31,1,1,0,0,1,.37.07,4.88,4.88,0,0,0,4.08-.18A2.91,2.91,0,0,0,537,64.41,3.15,3.15,0,0,0,536.87,62Zm-5.55.52a.54.54,0,0,1-.2.17.29.29,0,0,1-.16,0,.93.93,0,0,1-.66-.43.36.36,0,0,1,0-.09.28.28,0,0,1,0-.09,1.48,1.48,0,0,1,.12-.29.5.5,0,0,1,.62-.21.75.75,0,0,1,.41.26.47.47,0,0,1,.06.35A.88.88,0,0,1,531.32,62.56Zm2.07.58a.43.43,0,0,1-.2.16.33.33,0,0,1-.17,0,.9.9,0,0,1-.65-.44.12.12,0,0,1,0-.08.14.14,0,0,1,0-.09,1.48,1.48,0,0,1,.12-.29.52.52,0,0,1,.62-.22.82.82,0,0,1,.41.27.47.47,0,0,1,0,.35A.78.78,0,0,1,533.39,63.14Zm2.06.67a.47.47,0,0,1-.2.17.29.29,0,0,1-.16,0,.91.91,0,0,1-.65-.43.18.18,0,0,1,0-.09.14.14,0,0,1,0-.09.81.81,0,0,1,.12-.29.49.49,0,0,1,.61-.21.74.74,0,0,1,.42.26.52.52,0,0,1,.05.35A.65.65,0,0,1,535.45,63.81Z" transform="translate(-433.7 -58.75)"/><path class="cls-2" d="M533.14,169.46a.56.56,0,0,0-.27-.33.65.65,0,0,0-.41.05,2.17,2.17,0,0,1-2-.3,4.32,4.32,0,0,1-1.33-2.21l-.68-1.91a3.28,3.28,0,0,1,5.11,2.91,3.32,3.32,0,0,1,1.58-2.9,4.11,4.11,0,0,1,3.34-.35,6.21,6.21,0,0,1-1.24,3.3,3.88,3.88,0,0,1-3.1,1.5,2.82,2.82,0,0,1,.48.84,8,8,0,0,1,.39,1.35c.2.79.48,1.57.65,2.37a1.63,1.63,0,0,1-.16,1.21c-.28.4-.8.57-1,.14a8.48,8.48,0,0,1-.24-1.92A18.21,18.21,0,0,0,533.14,169.46Z" transform="translate(-433.7 -58.75)"/><path class="cls-2" d="M465.15,215.8a.52.52,0,0,0-.34-.25.59.59,0,0,0-.37.16,2.14,2.14,0,0,1-1.92.22,4.21,4.21,0,0,1-1.82-1.73l-1.13-1.62a3.19,3.19,0,0,1,5.55,1.41,3.22,3.22,0,0,1,.74-3.13,4,4,0,0,1,3-1.2,6,6,0,0,1-.32,3.42,3.76,3.76,0,0,1-2.51,2.22c.19.06.55.52.67.66a8.68,8.68,0,0,1,.71,1.17c.4.69,1,1.57,1.34,2.28a1.53,1.53,0,0,1,.16,1.18c-.15.45-.6.74-.92.4a10.94,10.94,0,0,1-.85-2A17.31,17.31,0,0,0,465.15,215.8Z" transform="translate(-433.7 -58.75)"/><path class="cls-2" d="M534.84,91.12c-.63.62-1.44,1.2-1.54,2.08a1.82,1.82,0,0,0,1.49,1.86,2.71,2.71,0,0,0,2.37-.84,5.3,5.3,0,0,0,1.1-4.74,4.44,4.44,0,0,0-1.75-3.07A5.16,5.16,0,0,1,534.84,91.12Z" transform="translate(-433.7 -58.75)"/><path class="cls-2" d="M477.2,204.27a1.47,1.47,0,0,0-.79.47,1.12,1.12,0,0,0-.2.33,1.25,1.25,0,0,0,.19.93,1.78,1.78,0,0,0,1.34,1.05,1.22,1.22,0,0,0,1.21-1.12A1.58,1.58,0,0,0,477.2,204.27Z" transform="translate(-433.7 -58.75)"/><path class="cls-2" d="M465.88,203.87a1.82,1.82,0,0,0-1.55-.31,1.84,1.84,0,0,0-1.22,1,2.72,2.72,0,0,0-.19,1.47,5.43,5.43,0,0,0,1.3,3,2.49,2.49,0,0,1,.19-1.45,5.18,5.18,0,0,1,1.24-1.55,1.93,1.93,0,0,0,.78-1.24A1.22,1.22,0,0,0,465.88,203.87Zm-.28,1.35a1.32,1.32,0,0,1-.25.28.69.69,0,0,1-.2.13.24.24,0,0,1-.22,0,.29.29,0,0,1-.12-.24.58.58,0,0,1,.09-.27,1.12,1.12,0,0,0,.11-.25.65.65,0,0,0,0-.24,1.21,1.21,0,0,1,0-.18.28.28,0,0,1,0-.18c.08-.16.34-.06.46,0a.41.41,0,0,1,.23.22.71.71,0,0,1,0,.29A1,1,0,0,1,465.6,205.22Z" transform="translate(-433.7 -58.75)"/><path class="cls-2" d="M565.55,211.06a3.3,3.3,0,0,0,0,2.58,9.23,9.23,0,0,1,.42,3.49,4.5,4.5,0,0,1-1.08,2.35,9.45,9.45,0,0,0,4.76-3.31,5,5,0,0,0,1.11-2.39,3.28,3.28,0,0,0-3.52-3.64A2.18,2.18,0,0,0,565.55,211.06Zm1.11.62a1.13,1.13,0,0,1,.33-.39.85.85,0,0,1,.56-.13c.23,0,.72.13.69.44a.5.5,0,0,1-.16.27l-.25.22a.91.91,0,0,0-.21.37,2.76,2.76,0,0,0-.07.49,1,1,0,0,1-.12.48.46.46,0,0,1-.4.25.5.5,0,0,1-.34-.21,1.4,1.4,0,0,1-.16-.38,1.84,1.84,0,0,1-.12-.66A1.49,1.49,0,0,1,566.66,211.68Z" transform="translate(-433.7 -58.75)"/><path class="cls-2" d="M575,208.7a1.14,1.14,0,0,0,.06.75,1,1,0,0,0,.17.27,1,1,0,0,0,.76.19,1.49,1.49,0,0,0,1.27-.6,1,1,0,0,0-.4-1.31A1.3,1.3,0,0,0,575,208.7Z" transform="translate(-433.7 -58.75)"/><path class="cls-2" d="M438,175.74a5.33,5.33,0,0,1,.53-5.91,5,5,0,0,1,5.83-.71,7.6,7.6,0,0,1,3.51,5,16.74,16.74,0,0,1,0,6.27c5.21-3,8.88-11.14,9.35-17.15.07-.77.26-1.77,1-1.89s1.23.73,1.38,1.45a21.29,21.29,0,0,1-.84,7.76,42.55,42.55,0,0,1-6.67,12.16,8.44,8.44,0,0,0-1.39,2.17,7.5,7.5,0,0,0-.32,2.22l-.32,7.08c-.05,1.15,0,2.3-.05,3.45a14.24,14.24,0,0,1-.35,4.19,7,7,0,0,0-.71-1.07c-.23-.35-.47-.69-.71-1-.6-.85-1.17-1.71-1.73-2.58a70.94,70.94,0,0,1-3.61-6.49c-1-2-2-4.25-1.78-6.53.11-1,1.19-2.48,1.14-3.38C442.17,179.15,438.82,177.41,438,175.74Z" transform="translate(-433.7 -58.75)"/><path class="cls-2" d="M451.3,107.66a19.48,19.48,0,0,0-1.77,4.8c-.79,3.48-1.57,8,.2,11.3-.14-1.77.18-4.1,1.33-5.45,1.75-2.07,4.49-2.9,6.85-1.2a7.07,7.07,0,0,1,2.21,7.87,10.48,10.48,0,0,1-6,6c2-.82,8.09,24.06,7.39,26.68a1.51,1.51,0,0,1-.93,1.09c-1,.31-2.32-1.49-2.68-2.24a41.61,41.61,0,0,1-1.87-7.24,29.92,29.92,0,0,0-4.78-12.46c-2.38,3.91-1.1,8.88-.52,13.42.61,4.84,1.35,10.93.15,15.66-.26,1-.79,2.2-1.82,2.24a2,2,0,0,1-1.51-.83c-2.07-2.38-.71-7.37-.58-10.51.22-4.94-1.79-10.23-4.08-14.61-3.95,4.64-3,12.27-4.33,18.22-.24,1.09-.88,2.38-2,2.35s-1.7-1.35-1.94-2.45C433,153,433.63,149,436,141.94c1.75-5.22,5.49-8.38,7.09-13.65,2-6.68,3.75-23.84,8.24-29.49,1-1.25,4-3.83,5.57-2.12,1.23,1.36-1.17,4.26-1.91,5.3A46.19,46.19,0,0,0,451.3,107.66Z" transform="translate(-433.7 -58.75)"/><path class="cls-2" d="M441.08,121.74a1.61,1.61,0,0,1,0,.62,1.41,1.41,0,0,1-.44.59c-2.85,2.78-4,6.94-5.12,10.89a17.66,17.66,0,0,1,.33-6.72,10.32,10.32,0,0,1,3.51-5.52,7.78,7.78,0,0,1-.08-5.3c.3-.93,1.53-4,2.67-3.87-.15,1.47-.74,3-.9,4.48A21.08,21.08,0,0,0,441.08,121.74Z" transform="translate(-433.7 -58.75)"/><path class="cls-2" d="M460.63,174.12a.26.26,0,0,0-.32,0c-.15.17,0,.44,0,.67s-.26.27-.44.34a1,1,0,0,0-.25.12c-.05,0-.18.14-.16.21s.25.11.32.12.48,0,.52.11a1.09,1.09,0,0,1,0,.36l0,.4c0,.11.06.26.16.22a.16.16,0,0,0,.07-.07,2.82,2.82,0,0,0,.26-.44l.12-.24c.06-.13.22,0,.32,0a4.44,4.44,0,0,0,.61.22.16.16,0,0,0,.15,0s0-.1,0-.15a.82.82,0,0,0-.26-.46c-.1-.1-.35-.13-.39-.28s.13-.08.18-.1a1,1,0,0,0,.24-.08c.09,0,.34-.21.28-.33s-.39-.09-.49-.1h-.25c-.07,0-.3,0-.34,0S460.85,174.25,460.63,174.12Z" transform="translate(-433.7 -58.75)"/><path class="cls-2" d="M454.22,200.83c-.08.33-.25.72-.57.74s-.54-.42-.6-.78a22.07,22.07,0,0,1,.29-8.29c.27-1.26,1.34-2.73,1.38-.61,0,1.37-.06,2.78-.06,4.16A20.76,20.76,0,0,1,454.22,200.83Z" transform="translate(-433.7 -58.75)"/><path class="cls-2" d="M454.47,204.35a2.23,2.23,0,0,1-.74,1.11,1.14,1.14,0,0,1-1.34-.05.56.56,0,0,0,.47-.42c.09-.36-.16-.75-.27-1.13-.19-.72.32-1.83,1.2-1.63S454.71,203.72,454.47,204.35Z" transform="translate(-433.7 -58.75)"/><path class="cls-2" d="M487.89,194.39a.21.21,0,0,0-.2.3L490,199a1.39,1.39,0,0,0,.84.8l4.69,2.28c.22.11.54.2.67,0a.5.5,0,0,0,0-.47c-.44-1-.92-2.08-1.44-3.1-.41-.81-.85-2.13-1.68-2.62a13.31,13.31,0,0,0-2.44-.86A11.91,11.91,0,0,0,487.89,194.39Z" transform="translate(-433.7 -58.75)"/><path class="cls-2" d="M490.08,200.39a6.9,6.9,0,0,0,.95.55l2.31,1.05a.3.3,0,0,1,.11.47,9.15,9.15,0,0,1-1.27,1.14.33.33,0,0,1-.32,0L488.62,202a2.11,2.11,0,0,1-1.4-1.52l-.73-2.08a1.09,1.09,0,0,1-.07-.75,1.15,1.15,0,0,1,.35-.41c.26-.21.64-1,1-.78s.52,1.24.65,1.51C489.2,199.61,489.31,199.85,490.08,200.39Z" transform="translate(-433.7 -58.75)"/><path class="cls-2" d="M492.73,204.12c-.36.33-.75.63-1.1,1,0,0-.06.05-.06.08s0,0,.05.07c.21.16.47.18.69.34a.17.17,0,0,0,.12.06c.14,0,.26-.17.33-.31a8.82,8.82,0,0,1,1.93-2.54c.06-.06.13-.15.11-.22s0-.07-.05-.11c-.41-.37-.64.08-1,.56A8.64,8.64,0,0,1,492.73,204.12Z" transform="translate(-433.7 -58.75)"/><path class="cls-2" d="M520.21,206.37a4.21,4.21,0,0,0-3.86-3.41,4.15,4.15,0,0,0-4.08,3.13,4.06,4.06,0,0,0,1.54,4,3.88,3.88,0,0,0,4.5-.16A4,4,0,0,0,520.21,206.37Zm-2.52,2.6a.4.4,0,0,1-.42,0c-.2-.14,0-.44.08-.65a3.34,3.34,0,0,0,.38-.81,1.51,1.51,0,0,0,0-.89,3.8,3.8,0,0,0-.58-.93c-.49-.73-.08-1.38.64-.84a2.64,2.64,0,0,1,1.12,2A2.38,2.38,0,0,1,517.69,209Z" transform="translate(-433.7 -58.75)"/><path class="cls-2" d="M518.31,215.31a2.89,2.89,0,0,0,.33,1.27.89.89,0,0,0,1.14.37.87.87,0,0,0,.36-.74,2.67,2.67,0,0,0-.21-.83c-.25-.66-1.35-4.23-2.11-4.07S518.23,214.68,518.31,215.31Z" transform="translate(-433.7 -58.75)"/><path class="cls-2" d="M525,208.86a4.82,4.82,0,0,0,0,5.81,4.17,4.17,0,0,1-2.7-2.9,4.43,4.43,0,0,1-.1-3.2,4.74,4.74,0,0,1,2.08-2,4.35,4.35,0,0,1-.33-2.86,3.62,3.62,0,0,1,.54-1.26,4.11,4.11,0,0,1,1.84-1.39,10.85,10.85,0,0,1,2.26-.57c.25,0,.61,0,.61.26a10.45,10.45,0,0,0-2.21,1.46,3.55,3.55,0,0,0-1.21,2.29,4.34,4.34,0,0,0,.37,1.87c.22.57.56.89.06,1.34A9.47,9.47,0,0,0,525,208.86Z" transform="translate(-433.7 -58.75)"/><path class="cls-2" d="M464.66,128.18a5.45,5.45,0,1,0,5.45,5.45A5.45,5.45,0,0,0,464.66,128.18Zm2.36,1.39a.34.34,0,0,1,.34.34.34.34,0,1,1-.68,0A.34.34,0,0,1,467,129.57Zm-3-.48a.41.41,0,0,1,.2-.23.63.63,0,0,1,.75.25.56.56,0,0,1,.06.47.46.46,0,0,1-.34.32.53.53,0,0,1-.46-.16.9.9,0,0,1-.21-.44A.5.5,0,0,1,464,129.09Zm-3.31,2.37a.34.34,0,1,1-.34.34A.34.34,0,0,1,460.68,131.46Zm-.75,2.88a.82.82,0,0,1-.21-.45.38.38,0,0,1,0-.21.34.34,0,0,1,.2-.22.63.63,0,0,1,.75.25.56.56,0,0,1,.06.47.48.48,0,0,1-.34.32A.53.53,0,0,1,459.93,134.34Zm1,2a.34.34,0,1,1,0-.68.34.34,0,1,1,0,.68Zm.79-5.75a.34.34,0,0,1-.34-.34.35.35,0,0,1,.34-.34.34.34,0,0,1,.34.34A.34.34,0,0,1,461.72,130.63Zm.79,7.1a.34.34,0,0,1,0-.68.34.34,0,1,1,0,.68Zm1.48-3.2-.63-1.75c-.16-.42-.58-1-.41-1.48a.42.42,0,0,1,.11-.18.38.38,0,0,1,.48.06,1.24,1.24,0,0,1,.24.47c.2.69.41,1.37.62,2a.66.66,0,0,0,.18.34.67.67,0,0,0,.44.1,8.05,8.05,0,0,1,1.76.2,1,1,0,0,1,.47.22.36.36,0,0,1,0,.48.5.5,0,0,1-.34.09,13.4,13.4,0,0,1-2.45-.17.63.63,0,0,1-.32-.12A.64.64,0,0,1,464,134.53Zm1.39,3.7a.48.48,0,0,1-.35.31.52.52,0,0,1-.45-.16.84.84,0,0,1-.22-.44.74.74,0,0,1,0-.21.39.39,0,0,1,.21-.23.62.62,0,0,1,.75.26A.59.59,0,0,1,465.38,138.23Zm1.89-.68a.34.34,0,1,1,.34-.34A.34.34,0,0,1,467.27,137.55Zm.79-6.22a.34.34,0,1,1,.34.34A.34.34,0,0,1,468.06,131.33Zm.57,4.57a.34.34,0,0,1,0-.68.34.34,0,0,1,0,.68Zm.69-2a.53.53,0,0,1-.46-.16.82.82,0,0,1-.21-.44.37.37,0,0,1,.2-.44.62.62,0,0,1,.75.26.59.59,0,0,1,.06.47A.48.48,0,0,1,469.32,134Z" transform="translate(-433.7 -58.75)"/><path class="cls-2" d="M577.83,163.7a.35.35,0,0,1-.17,0,2.83,2.83,0,0,0-1.55-.11l-.51,0a2,2,0,0,1-2.26-1.21,2,2,0,0,1,1.08-2.06l.48-.29a3,3,0,0,0,1.05-.8,1.3,1.3,0,0,0,.14-1.1,1.29,1.29,0,0,0-.7-.86,3,3,0,0,0-1.76,0l-.55.09a2.24,2.24,0,0,1-2.56-1.13,2.46,2.46,0,0,1,.5-2.07,2.11,2.11,0,0,0,.46-1.46c-.14-.56-.85-.79-1.07-.85a5.38,5.38,0,0,0-.74-.15l-.2,0-.2,0-.29,0a.8.8,0,0,1-.57-.38.88.88,0,0,1-.1-.37,2.19,2.19,0,0,1,.61-1.44.36.36,0,0,1,.52,0,.37.37,0,0,1,0,.52,1.36,1.36,0,0,0-.4.9s0,0,.07,0a.85.85,0,0,0,.23,0l.25,0,.19,0a6.24,6.24,0,0,1,.82.16,2.09,2.09,0,0,1,1.58,1.38,2.65,2.65,0,0,1-.54,2c-.32.55-.59,1-.44,1.46s1.06.74,1.77.64l.52-.09a3.68,3.68,0,0,1,2.18,0,2.14,2.14,0,0,1,.87,3.06,3.66,3.66,0,0,1-1.28,1,4.87,4.87,0,0,0-.45.27c-.44.28-.9.78-.77,1.25s.88.71,1.51.66l.47,0a3.35,3.35,0,0,1,2,.19.36.36,0,0,1,.16.49A.38.38,0,0,1,577.83,163.7Z" transform="translate(-433.7 -58.75)"/><path class="cls-2" d="M509.47,65.45c-.91.2-1.76.59-2.65.86a4.36,4.36,0,0,1-2.74.06,2.1,2.1,0,0,1-1.41-2.15,2.61,2.61,0,0,1,1.92-1.81,6.27,6.27,0,0,1,4.89.45c-.36-.72-.69-1.7-.09-2.25a1.74,1.74,0,0,1,.7-.33,3.13,3.13,0,0,1,2.39.07c1,.6,1.27,2,1.22,3.22a6.12,6.12,0,0,0,.2,2.09C512.4,65.51,511,65.1,509.47,65.45Z" transform="translate(-433.7 -58.75)"/><path class="cls-2" d="M565.41,197.43a6.33,6.33,0,0,1,.19-1.9,1.48,1.48,0,0,1,1.39-1.1,1.42,1.42,0,0,1,1.14,1.38,3.61,3.61,0,0,1-.57,1.83,4.17,4.17,0,0,1,2-1,1.42,1.42,0,0,1,1.64,1.14c.05.89-1,1.41-1.83,1.69-1.37.45-3.33,1.49-4.74,1.35C564.47,199.69,565.36,198.62,565.41,197.43Z" transform="translate(-433.7 -58.75)"/><path class="cls-2" d="M486.42,226.69a.72.72,0,0,0,.43.06c.19-.05.29-.25.37-.43l2.18-4.75a6.41,6.41,0,0,1,2.74,2.06c1,1.51.64,3.54-.1,5.19a6,6,0,0,1-2,2.6,4.85,4.85,0,0,1-4,.47,8.51,8.51,0,0,1-3.48-2.19,4.89,4.89,0,0,1-1.49-2.34c-.21-.91.11-2.25,1.11-2.3S485.33,226.27,486.42,226.69Z" transform="translate(-433.7 -58.75)"/><path class="cls-2" d="M482.43,222.89a3.77,3.77,0,0,1,2.33-2.14,3.83,3.83,0,0,1,3.15.4c-.37-.23-1.32,3.29-1.63,3.47C485.41,225.14,483.15,223.4,482.43,222.89Z" transform="translate(-433.7 -58.75)"/><path class="cls-2" d="M522.33,136l.17,1c0,.07,0,.16,0,.2a.2.2,0,0,1-.17,0,5.93,5.93,0,0,0-1.38-.28c-.15,0-.34,0-.4-.19a.28.28,0,0,1,0-.25.77.77,0,0,1,.18-.18l.3-.22a5.12,5.12,0,0,1,1.22-.71c.16-.06,0,.12,0,.2A1.18,1.18,0,0,0,522.33,136Z" transform="translate(-433.7 -58.75)"/><path class="cls-2" d="M523.42,138.69l.8.64s.12.1.1.17a.2.2,0,0,1-.13.11,6.47,6.47,0,0,0-1.22.71c-.12.09-.28.19-.42.12a.29.29,0,0,1-.14-.21.71.71,0,0,1,0-.25c0-.12.05-.24.08-.36a5.31,5.31,0,0,1,.43-1.35c.09-.15.13.06.18.12A1.42,1.42,0,0,0,523.42,138.69Z" transform="translate(-433.7 -58.75)"/><path class="cls-2" d="M526.07,139.91l1-.06c.07,0,.16,0,.2.06a.2.2,0,0,1,0,.17,7,7,0,0,0-.43,1.34c0,.15-.08.34-.23.38a.3.3,0,0,1-.24-.06,1,1,0,0,1-.16-.2l-.18-.33a5.16,5.16,0,0,1-.58-1.29c0-.17.13,0,.21,0A1.48,1.48,0,0,0,526.07,139.91Z" transform="translate(-433.7 -58.75)"/><path class="cls-2" d="M529,139l.67-.78c.05-.05.12-.11.19-.09a.22.22,0,0,1,.1.13,6,6,0,0,0,.66,1.25c.08.13.18.29.1.43a.27.27,0,0,1-.21.12.71.71,0,0,1-.25,0l-.36-.09a5.58,5.58,0,0,1-1.33-.49c-.15-.09.06-.13.13-.17A1.65,1.65,0,0,0,529,139Z" transform="translate(-433.7 -58.75)"/><path class="cls-2" d="M525.7,132.27l-1,.22c-.07,0-.16,0-.2,0s0-.11,0-.16a6,6,0,0,0,.22-1.39c0-.16,0-.35.17-.41a.28.28,0,0,1,.25,0,.73.73,0,0,1,.18.17l.24.29a5.16,5.16,0,0,1,.77,1.19c.07.16-.12.06-.2.05A1.52,1.52,0,0,0,525.7,132.27Z" transform="translate(-433.7 -58.75)"/><path class="cls-2" d="M528.92,133l-.86-.56c-.06,0-.13-.09-.12-.16s.07-.1.12-.13a6.1,6.1,0,0,0,1.14-.82c.12-.11.26-.22.41-.17a.31.31,0,0,1,.16.19,1.13,1.13,0,0,1,0,.26c0,.12,0,.24,0,.37a5,5,0,0,1-.29,1.38c-.07.16-.13,0-.19-.1A1.19,1.19,0,0,0,528.92,133Z" transform="translate(-433.7 -58.75)"/><path class="cls-2" d="M530.33,136.09l-.11-1c0-.07,0-.16,0-.2a.17.17,0,0,1,.17,0,7.21,7.21,0,0,0,1.36.37c.15,0,.34.06.39.21a.3.3,0,0,1-.05.24.77.77,0,0,1-.19.17l-.32.2a5.54,5.54,0,0,1-1.26.64c-.17.05,0-.13,0-.21A1.48,1.48,0,0,0,530.33,136.09Z" transform="translate(-433.7 -58.75)"/><path class="cls-2" d="M523.15,133.29l-.54.87c0,.06-.1.13-.17.12s-.09-.06-.12-.11a6.26,6.26,0,0,0-.84-1.13c-.11-.12-.23-.26-.17-.41a.26.26,0,0,1,.19-.16.69.69,0,0,1,.25,0l.37,0a5.45,5.45,0,0,1,1.39.28c.16.07,0,.13-.11.19A1.37,1.37,0,0,0,523.15,133.29Z" transform="translate(-433.7 -58.75)"/><path class="cls-2" d="M529,134c-1.44-1.57-4.91-1.56-5.76.64a3.24,3.24,0,0,0-.13,1.42,3.9,3.9,0,0,0,.75,2.11,3.24,3.24,0,0,0,3.94.59,3.54,3.54,0,0,0,1.78-2.11A2.83,2.83,0,0,0,529,134Zm-4.09.32a2.29,2.29,0,0,0-.39.72,2.91,2.91,0,0,0-.12,1.6,1.11,1.11,0,0,1,.05.54.62.62,0,0,1-.5-.4,1.63,1.63,0,0,1-.1-.66,3.42,3.42,0,0,1,.15-1.19,1.32,1.32,0,0,1,.78-.85c.08,0,.24,0,.27.06S525,134.25,524.94,134.31Z" transform="translate(-433.7 -58.75)"/><path class="cls-2" d="M527.87,215.54a.39.39,0,0,0,0-.28.36.36,0,0,0-.21-.15,1.45,1.45,0,0,1-.79-1,2.88,2.88,0,0,1,.35-1.61l.52-1.19a2.09,2.09,0,0,1,1.11,3.59,2.15,2.15,0,0,1,2-.66,2.61,2.61,0,0,1,1.71,1.3,3.93,3.93,0,0,1-2,1,2.46,2.46,0,0,1-2.11-.65,1.75,1.75,0,0,1-.14.6,4.64,4.64,0,0,1-.41.8c-.25.46-.46.94-.73,1.39a1,1,0,0,1-.61.49c-.3.07-.62-.08-.54-.38s.55-.72.73-1A12,12,0,0,0,527.87,215.54Z" transform="translate(-433.7 -58.75)"/><path class="cls-2" d="M463,117.75a3.43,3.43,0,0,1-.77,3,5.2,5.2,0,0,1,4.26,4.85,8.94,8.94,0,0,0,.76-2.4,3,3,0,0,0-.67-2.36,3.53,3.53,0,0,0-1.73-.88,3.55,3.55,0,0,0-4.41-4.75C461.46,114.87,462.78,117,463,117.75Z" transform="translate(-433.7 -58.75)"/><path class="cls-2" d="M564,207.73c.22,0,.45.06.66.08a20.27,20.27,0,0,0,16.13-6.88,11.58,11.58,0,0,1,3.07-3c1.27-.66,3.13-.5,3.8.76a17.37,17.37,0,0,0,2.53-7.92,56.73,56.73,0,0,0-4.82-30.64,4.47,4.47,0,0,0-1.49-2,1.59,1.59,0,0,0-2.21.42,2,2,0,0,0-.1,1.19,20,20,0,0,0,1.53,4.65,42.09,42.09,0,0,1,2.93,16.2c0,1.91-.85,6.9-3.71,5.4-2.36-1.22-2.63-3.87-6-3.34a5.5,5.5,0,0,0-4.49,5.41,6.33,6.33,0,0,0,2.77,4.85,9.59,9.59,0,0,0,5.47,1.59,6.09,6.09,0,0,1-1.44,3.13,18.25,18.25,0,0,1-12.88,6.94,5.44,5.44,0,0,0-2.24.45,1.56,1.56,0,0,0-.82,1.91A1.65,1.65,0,0,0,564,207.73Z" transform="translate(-433.7 -58.75)"/><path class="cls-2" d="M463.24,145.22a2.66,2.66,0,0,0,0,3.24,2.6,2.6,0,0,0,3.17.62,2.57,2.57,0,0,0,1.26-2.41,2.43,2.43,0,0,0-2-2A2.54,2.54,0,0,0,463.24,145.22Zm2.28.11c.08,0,.18.09.19.18s-.19.21-.34.23a2.41,2.41,0,0,0-.54.16,1,1,0,0,0-.44.35,2.17,2.17,0,0,0-.19.66c-.15.54-.62.62-.67.05a1.61,1.61,0,0,1,.47-1.35A1.48,1.48,0,0,1,465.52,145.33Z" transform="translate(-433.7 -58.75)"/><path class="cls-2" d="M468.24,142.39a2,2,0,0,0,.46-.69.58.58,0,0,0-.3-.69.55.55,0,0,0-.5.15,1.52,1.52,0,0,0-.31.44c-.2.39-1.42,2.4-1,2.69S468,142.69,468.24,142.39Z" transform="translate(-433.7 -58.75)"/><path class="cls-2" d="M579.64,214.77c-2.41-.25-4.34-2.84-6.73-2.41.28,2.41.55,4.95-.38,7.19C568.06,230.31,580.71,214.88,579.64,214.77Z" transform="translate(-433.7 -58.75)"/><path class="cls-2" d="M542.92,166.69a3.16,3.16,0,0,0,1.19-3.59,2.73,2.73,0,0,1,1,2.35,2.89,2.89,0,0,1-.61,2,3.06,3.06,0,0,1-1.71.82,2.83,2.83,0,0,1-.4,1.84,2.32,2.32,0,0,1-.59.66,2.67,2.67,0,0,1-1.42.47,7,7,0,0,1-1.52-.12c-.16,0-.37-.13-.32-.29a6.86,6.86,0,0,0,1.67-.44,2.34,2.34,0,0,0,1.23-1.15,2.89,2.89,0,0,0,.16-1.24c0-.39-.16-.66.24-.84A5.63,5.63,0,0,0,542.92,166.69Z" transform="translate(-433.7 -58.75)"/><path class="cls-2" d="M566.48,183.81l-.69-.12s-.11,0-.12-.08,0-.07,0-.1a4.75,4.75,0,0,0,.51-.83c0-.1.11-.21.21-.22a.2.2,0,0,1,.15.08.6.6,0,0,1,.08.16l.07.25a3.47,3.47,0,0,1,.18,1c0,.12-.1,0-.15,0A1.15,1.15,0,0,0,566.48,183.81Z" transform="translate(-433.7 -58.75)"/><path class="cls-2" d="M564.48,183.89l-.6.37a.12.12,0,0,1-.14,0,.12.12,0,0,1,0-.1,4.39,4.39,0,0,0-.17-1c0-.1-.06-.23,0-.3a.2.2,0,0,1,.17,0,.56.56,0,0,1,.16.07l.21.13a3.53,3.53,0,0,1,.77.6c.09.09-.06.07-.12.08A1.58,1.58,0,0,0,564.48,183.89Z" transform="translate(-433.7 -58.75)"/><path class="cls-2" d="M563.07,185.32l-.2.68a.13.13,0,0,1-.09.11s-.07,0-.1-.05a4.08,4.08,0,0,0-.77-.6c-.09-.05-.19-.13-.19-.23a.21.21,0,0,1,.1-.14A.52.52,0,0,1,562,185l.26-.05a4,4,0,0,1,1-.07c.12,0,0,.1,0,.14A.9.9,0,0,0,563.07,185.32Z" transform="translate(-433.7 -58.75)"/><path class="cls-2" d="M563,187.44l.34.62a.12.12,0,0,1,0,.14s-.07,0-.11,0a4.45,4.45,0,0,0-1,.14c-.1,0-.23,0-.3,0a.21.21,0,0,1,0-.17A.8.8,0,0,1,562,188l.14-.21a3.8,3.8,0,0,1,.63-.75c.09-.07.07.07.08.13A.88.88,0,0,0,563,187.44Z" transform="translate(-433.7 -58.75)"/><path class="cls-2" d="M568.11,186.87l.09-.7s0-.11.07-.12.08,0,.11,0a4.7,4.7,0,0,0,.85.47c.1,0,.22.1.23.2a.24.24,0,0,1-.07.16l-.16.08-.24.08a3.47,3.47,0,0,1-1,.23c-.12,0,0-.1,0-.15A.94.94,0,0,0,568.11,186.87Z" transform="translate(-433.7 -58.75)"/><path class="cls-2" d="M566.92,188.8l.56-.43a.15.15,0,0,1,.14,0s0,.07,0,.11a3.81,3.81,0,0,0,.27.93c0,.1.08.22,0,.3a.19.19,0,0,1-.16.06l-.17,0-.23-.12a3.57,3.57,0,0,1-.83-.51c-.09-.08.06-.08.11-.1A.92.92,0,0,0,566.92,188.8Z" transform="translate(-433.7 -58.75)"/><path class="cls-2" d="M564.56,189l.68.16s.11,0,.12.09a.19.19,0,0,1-.05.1,4.1,4.1,0,0,0-.56.8c0,.09-.12.2-.23.2a.19.19,0,0,1-.14-.09.51.51,0,0,1-.07-.17,1.84,1.84,0,0,1,0-.25,3.51,3.51,0,0,1-.12-1c0-.13.09,0,.14,0A1.33,1.33,0,0,0,564.56,189Z" transform="translate(-433.7 -58.75)"/><path class="cls-2" d="M568,185l-.43-.56s-.06-.09,0-.13a.13.13,0,0,1,.1-.06,4.33,4.33,0,0,0,.93-.28c.1,0,.22-.08.3,0a.15.15,0,0,1,.06.15.34.34,0,0,1-.05.17,1.63,1.63,0,0,1-.11.23,3.73,3.73,0,0,1-.5.84c-.08.09-.08-.06-.1-.11A1,1,0,0,0,568,185Z" transform="translate(-433.7 -58.75)"/><path class="cls-2" d="M566.22,188.63c1.35-.57,2.15-2.82.93-3.89a2.08,2.08,0,0,0-.89-.41,2.64,2.64,0,0,0-1.55,0,2.24,2.24,0,0,0-1.3,2.42,2.48,2.48,0,0,0,1,1.64A2,2,0,0,0,566.22,188.63Zm.74-2.74a1.45,1.45,0,0,0-.37-.41,2,2,0,0,0-1-.45.88.88,0,0,1-.36-.1.43.43,0,0,1,.37-.23,1.22,1.22,0,0,1,.46.09,2.64,2.64,0,0,1,.73.37.92.92,0,0,1,.37.71c0,.06,0,.17-.1.16S567,185.94,567,185.89Z" transform="translate(-433.7 -58.75)"/><path class="cls-2" d="M557,183.41a1.14,1.14,0,0,0,.07.75.77.77,0,0,0,.17.27,1,1,0,0,0,.76.19,1.48,1.48,0,0,0,1.26-.6,1,1,0,0,0-.4-1.31A1.3,1.3,0,0,0,557,183.41Z" transform="translate(-433.7 -58.75)"/><path class="cls-2" d="M482.33,217.37A2.36,2.36,0,0,0,483,217c.06,0,0,.11,0,.16a1.77,1.77,0,0,1-.8.52,1.33,1.33,0,0,1-.94,0c-.08,0-.26-.2-.09-.27a1.18,1.18,0,0,1,.37,0A2.07,2.07,0,0,0,482.33,217.37Z" transform="translate(-433.7 -58.75)"/><path class="cls-2" d="M482.65,217.7a.74.74,0,0,1,.29-.18s.09,0,.1,0a.09.09,0,0,1,0,.07,1.68,1.68,0,0,1-1.48.63c-.1,0-.33-.14-.16-.24s.35,0,.45,0A1.41,1.41,0,0,0,482.65,217.7Z" transform="translate(-433.7 -58.75)"/><path class="cls-2" d="M482.66,218.28s.11-.1.17-.07a.15.15,0,0,1,.05.18.81.81,0,0,1-.36.54.34.34,0,0,1-.12.06.38.38,0,0,1-.23-.06,1.33,1.33,0,0,1-.3-.23c-.21-.21.2-.16.31-.18A1.15,1.15,0,0,0,482.66,218.28Z" transform="translate(-433.7 -58.75)"/><path class="cls-2" d="M482.57,210.08a2.32,2.32,0,0,0-3.74.52,3,3,0,0,0-.19,2.1,6.86,6.86,0,0,0,.93,2c.36.54.66,1.6,1.18,2s1.6.35,1.91-.25a2.18,2.18,0,0,0,.06-1c0-1,.66-1.82.76-2.78a3.27,3.27,0,0,0-.38-1.75A3.22,3.22,0,0,0,482.57,210.08Zm-.73,3.84s.19-.26.21-.29a1.46,1.46,0,0,0,0,.55c0,.21,0,.42,0,.62a10.34,10.34,0,0,0,.13,1.26c0,.2,0,.45-.13.52a5.8,5.8,0,0,1-.27-1.14q0-.3,0-.6c0-.17.11-.37,0-.54s-.28-.22-.2-.43a.32.32,0,0,1-.18.12c-.1,0-.14,0-.2-.09s-.19-.16-.21,0a7.25,7.25,0,0,1,.49,2.48c0,.13,0,.24-.15.27a8.44,8.44,0,0,0-.77-2.86c-.14-.26-.44-.56-.32-.88-.11.28.42.51.58.64a.59.59,0,0,0,.05-.22,1.22,1.22,0,0,0,0-.33,1,1,0,0,0,.19.31c.08.14.16.27.25.4.26-.22,0-.64.25-.87a.11.11,0,0,1,.18,0C481.89,213.18,481.55,213.61,481.84,213.92Z" transform="translate(-433.7 -58.75)"/><path class="cls-2" d="M509.17,210.75a2,2,0,0,0-.2,3.07,3,3,0,0,0,1.45.68,5.71,5.71,0,0,0,3.51-.33,2.84,2.84,0,0,1-1.42-.67,5.5,5.5,0,0,1-1.17-1.79,2,2,0,0,0-1-1.2A1.34,1.34,0,0,0,509.17,210.75Zm1.29.74a1.22,1.22,0,0,1,.2.35.75.75,0,0,1,.08.24.31.31,0,0,1-.08.23.26.26,0,0,1-.28,0,.62.62,0,0,1-.25-.17,1,1,0,0,0-.22-.2.54.54,0,0,0-.24-.09h-.2a.31.31,0,0,1-.19-.06c-.13-.13.06-.37.15-.47a.47.47,0,0,1,.31-.16.55.55,0,0,1,.31.05A1,1,0,0,1,510.46,211.49Z" transform="translate(-433.7 -58.75)"/><path class="cls-2" d="M507.46,206.32c.11.45.19,1,.61,1.19a.85.85,0,0,0,1-.27,1.59,1.59,0,0,0,.28-1,2.3,2.3,0,0,0-.57-1.49,2.87,2.87,0,0,0,1.27,0,1,1,0,0,0,.76-.92,1.06,1.06,0,0,0-.6-.78,4.91,4.91,0,0,0-2.26-.34,12.13,12.13,0,0,1-3.43-.56c.35.11,1.25,1.32,1.56,1.68A6,6,0,0,1,507.46,206.32Z" transform="translate(-433.7 -58.75)"/><path class="cls-2" d="M496.38,229.25a2.61,2.61,0,0,0-1.95,1,2.65,2.65,0,0,0-.44,2.16,4,4,0,0,0,1.1,1.76,7.41,7.41,0,0,0,4.05,2.11,3.45,3.45,0,0,1-1.07-1.72,7.37,7.37,0,0,1,0-2.77,2.6,2.6,0,0,0-.25-2A1.72,1.72,0,0,0,496.38,229.25Zm.88,1.71a1.52,1.52,0,0,1,0,.52,1.17,1.17,0,0,1-.09.32.37.37,0,0,1-.25.19.35.35,0,0,1-.33-.15.85.85,0,0,1-.14-.36,2.36,2.36,0,0,0-.1-.38.79.79,0,0,0-.21-.27c-.06-.05-.14-.09-.21-.14a.39.39,0,0,1-.15-.21c-.06-.23.32-.36.49-.4a.7.7,0,0,1,.45,0,1,1,0,0,1,.3.27A1.25,1.25,0,0,1,497.26,231Z" transform="translate(-433.7 -58.75)"/><path class="cls-2" d="M496.43,225.11a.93.93,0,0,0-.6-.23.57.57,0,0,0-.26,0,.86.86,0,0,0-.44.51,1.25,1.25,0,0,0,0,1.19.87.87,0,0,0,1.15.18A1.1,1.1,0,0,0,496.43,225.11Z" transform="translate(-433.7 -58.75)"/><path class="cls-2" d="M535.25,133.84a2.16,2.16,0,0,0,1.58-3,3.18,3.18,0,0,0-1.13-1.31,6.14,6.14,0,0,0-3.61-1.25,2.94,2.94,0,0,1,1.1,1.29,6.14,6.14,0,0,1,.36,2.29,2.19,2.19,0,0,0,.46,1.65A1.44,1.44,0,0,0,535.25,133.84Zm-.94-1.31a1.6,1.6,0,0,1,0-.44.84.84,0,0,1,0-.27.31.31,0,0,1,.18-.19.29.29,0,0,1,.29.08.64.64,0,0,1,.16.29,1.94,1.94,0,0,0,.13.3.64.64,0,0,0,.21.19l.19.1a.31.31,0,0,1,.15.15c.08.18-.22.34-.35.39a.55.55,0,0,1-.38,0,.79.79,0,0,1-.29-.18A1.17,1.17,0,0,1,534.31,132.53Z" transform="translate(-433.7 -58.75)"/><path class="cls-2" d="M442.33,162.23a.34.34,0,0,0-.41-.13c-.27.12-.19.54-.38.77a.81.81,0,0,1-.7.16,1.45,1.45,0,0,0-.36,0c-.08,0-.29.07-.31.16s.24.27.32.32.56.24.55.41a1.61,1.61,0,0,1-.17.43l-.2.48c-.06.13-.07.33.07.35a.21.21,0,0,0,.13-.05,4,4,0,0,0,.54-.37,2.75,2.75,0,0,0,.26-.22c.14-.12.26.14.35.23a5.67,5.67,0,0,0,.61.59.18.18,0,0,0,.17.07c.07,0,.1-.08.12-.14a1,1,0,0,0-.05-.69c-.06-.17-.34-.34-.31-.54s.2,0,.27,0a1.84,1.84,0,0,0,.33,0c.12,0,.51-.06.5-.24s-.41-.31-.52-.37a2.64,2.64,0,0,0-.29-.15c-.08,0-.36-.13-.38-.22C442.41,162.82,442.5,162.5,442.33,162.23Z" transform="translate(-433.7 -58.75)"/><path class="cls-2" d="M443.36,156.45a.22.22,0,0,0-.27-.09c-.18.08-.13.37-.25.52s-.31.12-.48.11a1,1,0,0,0-.24,0c-.05,0-.19,0-.2.11s.16.18.21.21.38.17.37.28a1,1,0,0,1-.11.29l-.14.32c0,.09,0,.23.05.23s.06,0,.09,0a4.06,4.06,0,0,0,.36-.26l.18-.14c.09-.08.17.09.23.15a5.18,5.18,0,0,0,.41.4.13.13,0,0,0,.11.05c.05,0,.07-.06.09-.1a.72.72,0,0,0,0-.46c0-.12-.23-.23-.21-.36s.14,0,.18,0l.22,0c.09,0,.34,0,.34-.16s-.28-.21-.35-.25l-.19-.1c-.06,0-.25-.09-.26-.15S443.48,156.63,443.36,156.45Z" transform="translate(-433.7 -58.75)"/><path class="cls-2" d="M540.4,73.8a.29.29,0,0,0,0-.36c-.19-.15-.48.06-.72,0s-.3-.27-.37-.47a1.3,1.3,0,0,0-.14-.26s-.16-.19-.23-.17-.12.27-.13.35,0,.51-.11.56a1.58,1.58,0,0,1-.38,0l-.43,0c-.12,0-.28.07-.24.17a.2.2,0,0,0,.08.08,3.24,3.24,0,0,0,.47.28l.26.12c.14.06,0,.24,0,.34s-.16.44-.22.67a.14.14,0,0,0,0,.15s.1,0,.15,0a.9.9,0,0,0,.5-.28c.1-.11.13-.38.29-.42s.09.13.11.19a1.14,1.14,0,0,0,.09.26c.05.09.23.36.36.29s.09-.42.1-.52v-.28c0-.07,0-.31,0-.36S540.27,74,540.4,73.8Z" transform="translate(-433.7 -58.75)"/><path class="cls-2" d="M582.61,207.43a3.15,3.15,0,0,0-.61,3.73,2.71,2.71,0,0,1-1.41-2.16,2.9,2.9,0,0,1,.29-2.07,3.1,3.1,0,0,1,1.56-1.08,2.86,2.86,0,0,1,.1-1.87,2.49,2.49,0,0,1,.49-.75,2.63,2.63,0,0,1,1.33-.69,7.62,7.62,0,0,1,1.51-.11c.17,0,.39.07.37.23a7.21,7.21,0,0,0-1.58.69,2.33,2.33,0,0,0-1,1.34,2.89,2.89,0,0,0,0,1.24c.08.39.26.64-.11.87A5.93,5.93,0,0,0,582.61,207.43Z" transform="translate(-433.7 -58.75)"/><path class="cls-2" d="M540.64,229.87a1.4,1.4,0,0,0-.59.7,1.17,1.17,0,0,0-.08.37,1.25,1.25,0,0,0,.49.82,1.83,1.83,0,0,0,1.61.56,1.24,1.24,0,0,0,.77-1.47A1.57,1.57,0,0,0,540.64,229.87Z" transform="translate(-433.7 -58.75)"/><path class="cls-2" d="M545.86,233.77a.81.81,0,0,0-.29.43.41.41,0,0,0,0,.22.68.68,0,0,0,.32.43,1,1,0,0,0,.95.23.71.71,0,0,0,.36-.87A.91.91,0,0,0,545.86,233.77Z" transform="translate(-433.7 -58.75)"/><path class="cls-2" d="M573.61,178.13a.29.29,0,0,0-.34-.12c-.22.1-.17.45-.33.63a.64.64,0,0,1-.59.12,1,1,0,0,0-.3,0c-.06,0-.23,0-.25.13s.19.22.25.27.47.21.46.35a1.54,1.54,0,0,1-.15.35l-.18.4c0,.1-.06.28.05.29a.21.21,0,0,0,.11,0,4.53,4.53,0,0,0,.46-.3l.22-.17c.12-.1.22.11.29.2s.32.34.49.5.09.07.14.06.09-.07.11-.12a.86.86,0,0,0,0-.57c0-.14-.28-.29-.25-.45s.17,0,.22,0a1.27,1.27,0,0,0,.28,0c.1,0,.42,0,.42-.19s-.34-.27-.42-.32l-.25-.13c-.06,0-.3-.11-.31-.19C573.66,178.62,573.75,178.35,573.61,178.13Z" transform="translate(-433.7 -58.75)"/><path class="cls-2" d="M511.08,226.18c-.08-.17-.16-.4,0-.53s.39,0,.55.11a12.72,12.72,0,0,1,3,3.66c.35.64.44,1.67-.37.78-.52-.58-1-1.22-1.52-1.81A12.45,12.45,0,0,1,511.08,226.18Z" transform="translate(-433.7 -58.75)"/><path class="cls-2" d="M509.67,224.77a1.22,1.22,0,0,1-.1-.75.63.63,0,0,1,.59-.48.34.34,0,0,0-.05.35c.1.19.36.26.54.39.35.24.55.9.1,1.14S509.8,225.12,509.67,224.77Z" transform="translate(-433.7 -58.75)"/><polygon class="cls-2" points="136.89 28.14 152.76 34.12 147.51 27.33 145.24 26.47 136.89 28.14"/><path class="cls-2" d="M582,80.44a2.92,2.92,0,1,0,1.7,3.76A2.92,2.92,0,0,0,582,80.44Zm-1.63,4.32a1.7,1.7,0,1,1,2.19-1A1.7,1.7,0,0,1,580.41,84.76Z" transform="translate(-433.7 -58.75)"/><rect class="cls-2" x="571.3" y="100" width="1.5" height="14.22" transform="translate(-163.44 545.99) rotate(-69.37)"/><path class="cls-2" d="M569.92,88.67l-1.43,14,9.12,3.44,8.19-11.46Zm7.25,15.48-7-2.65,1.11-10.83,12.27,4.62Z" transform="translate(-433.7 -58.75)"/><path class="cls-2" d="M575.11,96.17c-.75.65-1.74,1.06-2.19,2A2.65,2.65,0,0,0,573,101a2.35,2.35,0,0,0,3.13.2c1.81-1.35,1.11-4.25.62-6.07-.32-1.15-.73-.13-1,.36A3.07,3.07,0,0,1,575.11,96.17Z" transform="translate(-433.7 -58.75)"/><path class="cls-2" d="M545.68,64.86a1.91,1.91,0,0,0-.3,2.7,2.89,2.89,0,0,0,2.4.63c3.16,0,6.57,1.13,8.21,3.83,1.93,3.17.84,7.34-1.08,10.51s-4.62,5.88-6.15,9.26a16,16,0,0,0-1.28,8.39,1.89,1.89,0,0,0,2.68,0,5.39,5.39,0,0,0,1.31-2.66l1.42-5a9.81,9.81,0,0,1,1.69-3.78c.8-.94,3.24-2.27,3.95-.58,1.26,3,1.11,7.15.49,10.28-.25,1.22-.6,2.42-.84,3.64-.16.8-.84,2.4-.15,3.09,1.92,1.93,4.17-3.18,4.5-4.26a20.41,20.41,0,0,0,.82-7.21c-.16-2.35-1.64-4.5-1.53-6.84.12-2.69,2.75-4.65,5.36-5.27s11.35-4,14-4.35c.74-.11,1.56-.32,1.82-1.13a1.61,1.61,0,0,0-.46-1.6,4,4,0,0,0-2.89-.84c-2.54,0-10.32,3.44-12.81,3.91-1.18.23-3-.2-3.17-1.4,3.21-.3,6.13-3.7,4.55-6.93A3.73,3.73,0,0,0,563,67.45c-1.85,1.12-2.08,3.47-2.17,5.53C561,68.14,549.39,61.72,545.68,64.86Z" transform="translate(-433.7 -58.75)"/><path class="cls-2" d="M546.78,87.36a1.1,1.1,0,0,0,.47.53.73.73,0,0,0,.28.1,1,1,0,0,0,.69-.29,1.39,1.39,0,0,0,.6-1.18,1,1,0,0,0-1.05-.76A1.23,1.23,0,0,0,546.78,87.36Z" transform="translate(-433.7 -58.75)"/><path class="cls-2" d="M566.71,87.08a2.15,2.15,0,0,0-1.52,2.07,1.84,1.84,0,0,1-.19-1.74,2,2,0,0,1,.82-1.16,2.07,2.07,0,0,1,1.28-.18,1.94,1.94,0,0,1,.64-1.1,1.55,1.55,0,0,1,.53-.3,1.77,1.77,0,0,1,1,0,4.36,4.36,0,0,1,1,.4c.1.05.21.16.15.25a4.61,4.61,0,0,0-1.17-.07,1.55,1.55,0,0,0-1,.49,1.93,1.93,0,0,0-.37.76c-.07.26,0,.47-.33.49A4,4,0,0,0,566.71,87.08Z" transform="translate(-433.7 -58.75)"/><path class="cls-2" d="M571.24,72a1,1,0,0,0-.36.53.57.57,0,0,0,0,.26.79.79,0,0,0,.39.53,1.21,1.21,0,0,0,1.15.28.86.86,0,0,0,.44-1.06A1.1,1.1,0,0,0,571.24,72Z" transform="translate(-433.7 -58.75)"/><path class="cls-2" d="M648.94,122.07h8.7v16.7A28.35,28.35,0,0,1,641,144c-12.94,0-22.47-8.88-22.47-21.29s9.53-21.29,22.64-21.29c7.24,0,13.23,2.47,17.23,7.12l-6.11,5.64a14,14,0,0,0-10.65-4.64c-8,0-13.46,5.35-13.46,13.17s5.47,13.17,13.35,13.17a15.2,15.2,0,0,0,7.41-1.76Z" transform="translate(-433.7 -58.75)"/><path class="cls-2" d="M693.81,125.25V143.3h-8.59v-3.94c-1.7,2.88-5,4.41-9.64,4.41-7.41,0-11.82-4.11-11.82-9.58s3.94-9.47,13.58-9.47h7.29c0-3.94-2.35-6.23-7.29-6.23a15.15,15.15,0,0,0-9.11,2.94l-3.3-6.41c3.47-2.47,8.59-3.83,13.65-3.83C688.22,111.19,693.81,115.66,693.81,125.25Zm-9.18,8.06v-3.24h-6.29c-4.29,0-5.64,1.59-5.64,3.71,0,2.29,1.94,3.82,5.17,3.82C680.93,137.6,683.58,136.19,684.63,133.31Z" transform="translate(-433.7 -58.75)"/><path class="cls-2" d="M734.45,125.19V143.3h-9.18V126.6c0-5.11-2.35-7.47-6.41-7.47-4.41,0-7.58,2.71-7.58,8.53V143.3H702.1V111.67h8.76v3.7a13.85,13.85,0,0,1,10.47-4.18C728.8,111.19,734.45,115.55,734.45,125.19Z" transform="translate(-433.7 -58.75)"/><path class="cls-2" d="M775.32,99.67V143.3h-8.76v-3.64c-2.3,2.76-5.65,4.11-9.88,4.11-8.94,0-15.82-6.35-15.82-16.29s6.88-16.29,15.82-16.29c3.88,0,7.17,1.24,9.46,3.83V99.67Zm-9,27.81c0-5.46-3.53-8.76-8.06-8.76s-8.11,3.3-8.11,8.76,3.53,8.77,8.11,8.77S766.32,133,766.32,127.48Z" transform="translate(-433.7 -58.75)"/><path class="cls-2" d="M814.6,130.07H790.67c.88,3.94,4.23,6.35,9.05,6.35a10.7,10.7,0,0,0,7.94-3.06l4.88,5.3c-2.94,3.35-7.35,5.11-13,5.11-10.94,0-18-6.88-18-16.29s7.23-16.29,16.87-16.29c9.29,0,16.47,6.24,16.47,16.41C814.78,128.31,814.66,129.31,814.6,130.07Zm-24.05-5.35h15.58a7.9,7.9,0,0,0-15.58,0Z" transform="translate(-433.7 -58.75)"/><path class="cls-2" d="M853.24,125.19V143.3h-9.17V126.6c0-5.11-2.36-7.47-6.41-7.47-4.41,0-7.59,2.71-7.59,8.53V143.3H820.9V111.67h8.76v3.7a13.83,13.83,0,0,1,10.47-4.18C847.6,111.19,853.24,115.55,853.24,125.19Z" transform="translate(-433.7 -58.75)"/><path class="cls-2" d="M894.53,111.67V138c0,11.76-6.36,17.17-17.76,17.17-6,0-11.82-1.47-15.53-4.35l3.65-6.59a18.86,18.86,0,0,0,11.17,3.59c6.47,0,9.29-2.94,9.29-8.64v-1.36c-2.41,2.65-5.88,3.94-10,3.94-8.76,0-15.81-6.05-15.81-15.29s7.05-15.29,15.81-15.29c4.41,0,8.06,1.47,10.47,4.53v-4Zm-9.06,14.81c0-4.64-3.47-7.76-8.29-7.76s-8.35,3.12-8.35,7.76,3.53,7.77,8.35,7.77S885.47,131.13,885.47,126.48Z" transform="translate(-433.7 -58.75)"/><path class="cls-2" d="M625.2,161.79V174.9h17.26V178H625.2v14.16h-3.53V158.74h22.89v3Z" transform="translate(-433.7 -58.75)"/><path class="cls-2" d="M647.76,179.58a12.76,12.76,0,1,1,12.78,12.78A12.34,12.34,0,0,1,647.76,179.58Zm22.08,0c0-5.87-4-9.78-9.3-9.78s-9.35,3.91-9.35,9.78,4,9.77,9.35,9.77S669.84,185.44,669.84,179.58Z" transform="translate(-433.7 -58.75)"/><path class="cls-2" d="M702.79,167v25.08h-3.24v-4.58a10,10,0,0,1-9,4.82c-6.39,0-10.59-3.58-10.59-10.78V167h3.39v14.21c0,5.34,2.76,8.05,7.53,8.05,5.25,0,8.54-3.38,8.54-9.1V167Z" transform="translate(-433.7 -58.75)"/><path class="cls-2" d="M735.36,177.57v14.55H732V177.91c0-5.29-2.77-8-7.54-8-5.39,0-8.77,3.34-8.77,9.06v13.16h-3.39V167h3.24v4.62c1.82-3,5.2-4.81,9.54-4.81C731.17,166.85,735.36,170.37,735.36,177.57Z" transform="translate(-433.7 -58.75)"/><path class="cls-2" d="M767.55,156.74v35.38h-3.24v-5a10.88,10.88,0,0,1-9.68,5.2c-7.15,0-12.49-5.2-12.49-12.78s5.34-12.73,12.49-12.73a11,11,0,0,1,9.54,5V156.74Zm-3.34,22.84c0-5.87-4-9.78-9.29-9.78s-9.35,3.91-9.35,9.78,4,9.77,9.35,9.77S764.21,185.44,764.21,179.58Z" transform="translate(-433.7 -58.75)"/><path class="cls-2" d="M795.93,176.57v15.55h-3.25v-3.91c-1.52,2.57-4.48,4.15-8.63,4.15-5.67,0-9.15-3-9.15-7.3,0-3.86,2.48-7.1,9.68-7.1h8v-1.53c0-4.29-2.43-6.63-7.1-6.63a12.79,12.79,0,0,0-8.35,3l-1.52-2.53a15.92,15.92,0,0,1,10.2-3.38C792.25,166.85,795.93,170.09,795.93,176.57Zm-3.39,8v-4.1h-7.87c-4.86,0-6.43,1.91-6.43,4.49,0,2.9,2.33,4.72,6.34,4.72A8,8,0,0,0,792.54,184.58Z" transform="translate(-433.7 -58.75)"/><path class="cls-2" d="M818.34,190.59a8.07,8.07,0,0,1-5.29,1.77c-4.72,0-7.34-2.67-7.34-7.3V169.9h-4.49V167h4.49v-5.49h3.38V167h7.63v2.86h-7.63v15c0,3,1.53,4.58,4.34,4.58a5.6,5.6,0,0,0,3.72-1.29Z" transform="translate(-433.7 -58.75)"/><path class="cls-2" d="M823.73,159.12a2.44,2.44,0,0,1,2.48-2.38,2.41,2.41,0,1,1,0,4.81A2.45,2.45,0,0,1,823.73,159.12Zm.76,7.92h3.39v25.08h-3.39Z" transform="translate(-433.7 -58.75)"/><path class="cls-2" d="M834.79,179.58a12.76,12.76,0,1,1,12.78,12.78A12.34,12.34,0,0,1,834.79,179.58Zm22.08,0c0-5.87-4-9.78-9.3-9.78s-9.34,3.91-9.34,9.78,4,9.77,9.34,9.77S856.87,185.44,856.87,179.58Z" transform="translate(-433.7 -58.75)"/><path class="cls-2" d="M890.3,177.57v14.55h-3.38V177.91c0-5.29-2.77-8-7.54-8-5.38,0-8.77,3.34-8.77,9.06v13.16h-3.39V167h3.25v4.62c1.81-3,5.19-4.81,9.53-4.81C886.11,166.85,890.3,170.37,890.3,177.57Z" transform="translate(-433.7 -58.75)"/></svg>